  0
SECTION
  2
HEADER
  9
$ACADVER
  1
AC1024
  9
$ACADMAINTVER
 70
6
  9
$DWGCODEPAGE
  3
ANSI_1252
  9
$LASTSAVEDBY
  1
ezdxf
  9
$INSBASE
 10
0.0
 20
0.0
 30
0.0
  9
$EXTMIN
 10
1e+20
 20
1e+20
 30
1e+20
  9
$EXTMAX
 10
-1e+20
 20
-1e+20
 30
-1e+20
  9
$LIMMIN
 10
0.0
 20
0.0
  9
$LIMMAX
 10
420.0
 20
297.0
  9
$ORTHOMODE
 70
0
  9
$REGENMODE
 70
1
  9
$FILLMODE
 70
1
  9
$QTEXTMODE
 70
0
  9
$MIRRTEXT
 70
1
  9
$LTSCALE
 40
1.0
  9
$ATTMODE
 70
1
  9
$TEXTSIZE
 40
2.5
  9
$TRACEWID
 40
1.0
  9
$TEXTSTYLE
  7
Standard
  9
$CLAYER
  8
0
  9
$CELTYPE
  6
ByLayer
  9
$CECOLOR
 62
256
  9
$CELTSCALE
 40
1.0
  9
$DISPSILH
 70
0
  9
$DIMSCALE
 40
1.0
  9
$DIMASZ
 40
2.5
  9
$DIMEXO
 40
0.625
  9
$DIMDLI
 40
3.75
  9
$DIMRND
 40
0.0
  9
$DIMDLE
 40
0.0
  9
$DIMEXE
 40
1.25
  9
$DIMTP
 40
0.0
  9
$DIMTM
 40
0.0
  9
$DIMTXT
 40
2.5
  9
$DIMCEN
 40
2.5
  9
$DIMTSZ
 40
0.0
  9
$DIMTOL
 70
0
  9
$DIMLIM
 70
0
  9
$DIMTIH
 70
0
  9
$DIMTOH
 70
0
  9
$DIMSE1
 70
0
  9
$DIMSE2
 70
0
  9
$DIMTAD
 70
1
  9
$DIMZIN
 70
8
  9
$DIMBLK
  1

  9
$DIMASO
 70
1
  9
$DIMSHO
 70
1
  9
$DIMPOST
  1

  9
$DIMAPOST
  1

  9
$DIMALT
 70
0
  9
$DIMALTD
 70
3
  9
$DIMALTF
 40
0.03937007874
  9
$DIMLFAC
 40
1.0
  9
$DIMTOFL
 70
1
  9
$DIMTVP
 40
0.0
  9
$DIMTIX
 70
0
  9
$DIMSOXD
 70
0
  9
$DIMSAH
 70
0
  9
$DIMBLK1
  1

  9
$DIMBLK2
  1

  9
$DIMSTYLE
  2
ISO-25
  9
$DIMCLRD
 70
0
  9
$DIMCLRE
 70
0
  9
$DIMCLRT
 70
0
  9
$DIMTFAC
 40
1.0
  9
$DIMGAP
 40
0.625
  9
$DIMJUST
 70
0
  9
$DIMSD1
 70
0
  9
$DIMSD2
 70
0
  9
$DIMTOLJ
 70
0
  9
$DIMTZIN
 70
8
  9
$DIMALTZ
 70
0
  9
$DIMALTTZ
 70
0
  9
$DIMUPT
 70
0
  9
$DIMDEC
 70
2
  9
$DIMTDEC
 70
2
  9
$DIMALTU
 70
2
  9
$DIMALTTD
 70
3
  9
$DIMTXSTY
  7
Standard
  9
$DIMAUNIT
 70
0
  9
$DIMADEC
 70
0
  9
$DIMALTRND
 40
0.0
  9
$DIMAZIN
 70
0
  9
$DIMDSEP
 70
44
  9
$DIMATFIT
 70
3
  9
$DIMFRAC
 70
0
  9
$DIMLDRBLK
  1

  9
$DIMLUNIT
 70
2
  9
$DIMLWD
 70
-2
  9
$DIMLWE
 70
-2
  9
$DIMTMOVE
 70
0
  9
$DIMFXL
 40
1.0
  9
$DIMFXLON
 70
0
  9
$DIMJOGANG
 40
0.785398163397
  9
$DIMTFILL
 70
0
  9
$DIMTFILLCLR
 70
0
  9
$DIMARCSYM
 70
0
  9
$DIMLTYPE
  6

  9
$DIMLTEX1
  6

  9
$DIMLTEX2
  6

  9
$DIMTXTDIRECTION
 70
0
  9
$LUNITS
 70
2
  9
$LUPREC
 70
4
  9
$SKETCHINC
 40
1.0
  9
$FILLETRAD
 40
10.0
  9
$AUNITS
 70
0
  9
$AUPREC
 70
2
  9
$MENU
  1
.
  9
$ELEVATION
 40
0.0
  9
$PELEVATION
 40
0.0
  9
$THICKNESS
 40
0.0
  9
$LIMCHECK
 70
0
  9
$CHAMFERA
 40
0.0
  9
$CHAMFERB
 40
0.0
  9
$CHAMFERC
 40
0.0
  9
$CHAMFERD
 40
0.0
  9
$SKPOLY
 70
0
  9
$TDCREATE
 40
2461245.3715625
  9
$TDUCREATE
 40
2458532.153996898
  9
$TDUPDATE
 40
2461245.3715625
  9
$TDUUPDATE
 40
2458532.1544311
  9
$TDINDWG
 40
0.0
  9
$TDUSRTIMER
 40
0.0
  9
$USRTIMER
 70
1
  9
$ANGBASE
 50
0.0
  9
$ANGDIR
 70
0
  9
$PDMODE
 70
0
  9
$PDSIZE
 40
0.0
  9
$PLINEWID
 40
0.0
  9
$SPLFRAME
 70
0
  9
$SPLINETYPE
 70
6
  9
$SPLINESEGS
 70
8
  9
$HANDSEED
  5
1CF
  9
$SURFTAB1
 70
6
  9
$SURFTAB2
 70
6
  9
$SURFTYPE
 70
6
  9
$SURFU
 70
6
  9
$SURFV
 70
6
  9
$UCSBASE
  2

  9
$UCSNAME
  2

  9
$UCSORG
 10
0.0
 20
0.0
 30
0.0
  9
$UCSXDIR
 10
1.0
 20
0.0
 30
0.0
  9
$UCSYDIR
 10
0.0
 20
1.0
 30
0.0
  9
$UCSORTHOREF
  2

  9
$UCSORTHOVIEW
 70
0
  9
$UCSORGTOP
 10
0.0
 20
0.0
 30
0.0
  9
$UCSORGBOTTOM
 10
0.0
 20
0.0
 30
0.0
  9
$UCSORGLEFT
 10
0.0
 20
0.0
 30
0.0
  9
$UCSORGRIGHT
 10
0.0
 20
0.0
 30
0.0
  9
$UCSORGFRONT
 10
0.0
 20
0.0
 30
0.0
  9
$UCSORGBACK
 10
0.0
 20
0.0
 30
0.0
  9
$PUCSBASE
  2

  9
$PUCSNAME
  2

  9
$PUCSORG
 10
0.0
 20
0.0
 30
0.0
  9
$PUCSXDIR
 10
1.0
 20
0.0
 30
0.0
  9
$PUCSYDIR
 10
0.0
 20
1.0
 30
0.0
  9
$PUCSORTHOREF
  2

  9
$PUCSORTHOVIEW
 70
0
  9
$PUCSORGTOP
 10
0.0
 20
0.0
 30
0.0
  9
$PUCSORGBOTTOM
 10
0.0
 20
0.0
 30
0.0
  9
$PUCSORGLEFT
 10
0.0
 20
0.0
 30
0.0
  9
$PUCSORGRIGHT
 10
0.0
 20
0.0
 30
0.0
  9
$PUCSORGFRONT
 10
0.0
 20
0.0
 30
0.0
  9
$PUCSORGBACK
 10
0.0
 20
0.0
 30
0.0
  9
$USERI1
 70
0
  9
$USERI2
 70
0
  9
$USERI3
 70
0
  9
$USERI4
 70
0
  9
$USERI5
 70
0
  9
$USERR1
 40
0.0
  9
$USERR2
 40
0.0
  9
$USERR3
 40
0.0
  9
$USERR4
 40
0.0
  9
$USERR5
 40
0.0
  9
$WORLDVIEW
 70
1
  9
$SHADEDGE
 70
3
  9
$SHADEDIF
 70
70
  9
$TILEMODE
 70
1
  9
$MAXACTVP
 70
64
  9
$PINSBASE
 10
0.0
 20
0.0
 30
0.0
  9
$PLIMCHECK
 70
0
  9
$PEXTMIN
 10
1e+20
 20
1e+20
 30
1e+20
  9
$PEXTMAX
 10
-1e+20
 20
-1e+20
 30
-1e+20
  9
$PLIMMIN
 10
0.0
 20
0.0
  9
$PLIMMAX
 10
420.0
 20
297.0
  9
$UNITMODE
 70
0
  9
$VISRETAIN
 70
1
  9
$PLINEGEN
 70
0
  9
$PSLTSCALE
 70
1
  9
$TREEDEPTH
 70
3020
  9
$CMLSTYLE
  2
Standard
  9
$CMLJUST
 70
0
  9
$CMLSCALE
 40
20.0
  9
$PROXYGRAPHICS
 70
1
  9
$MEASUREMENT
 70
1
  9
$CELWEIGHT
370
-1
  9
$ENDCAPS
280
0
  9
$JOINSTYLE
280
0
  9
$LWDISPLAY
290
0
  9
$INSUNITS
 70
6
  9
$HYPERLINKBASE
  1

  9
$STYLESHEET
  1

  9
$XEDIT
290
1
  9
$CEPSNTYPE
380
0
  9
$PSTYLEMODE
290
1
  9
$FINGERPRINTGUID
  2
{115ED869-3065-4577-9163-665EDD48F1A4}
  9
$VERSIONGUID
  2
{1D86C7EF-F755-4109-9413-6226F67CE47E}
  9
$EXTNAMES
290
1
  9
$PSVPSCALE
 40
0.0
  9
$OLESTARTUP
290
0
  9
$SORTENTS
280
127
  9
$INDEXCTL
280
0
  9
$HIDETEXT
280
1
  9
$XCLIPFRAME
280
1
  9
$HALOGAP
280
0
  9
$OBSCOLOR
 70
257
  9
$OBSLTYPE
280
0
  9
$INTERSECTIONDISPLAY
280
0
  9
$INTERSECTIONCOLOR
 70
257
  9
$DIMASSOC
280
2
  9
$PROJECTNAME
  1

  9
$CAMERADISPLAY
290
0
  9
$LENSLENGTH
 40
50.0
  9
$CAMERAHEIGHT
 40
0.0
  9
$STEPSPERSEC
 40
24.0
  9
$STEPSIZE
 40
100.0
  9
$3DDWFPREC
 40
2.0
  9
$PSOLWIDTH
 40
0.005
  9
$PSOLHEIGHT
 40
0.08
  9
$LOFTANG1
 40
1.570796326795
  9
$LOFTANG2
 40
1.570796326795
  9
$LOFTMAG1
 40
0.0
  9
$LOFTMAG2
 40
0.0
  9
$LOFTPARAM
 70
7
  9
$LOFTNORMALS
280
1
  9
$LATITUDE
 40
37.795
  9
$LONGITUDE
 40
-122.394
  9
$NORTHDIRECTION
 40
0.0
  9
$TIMEZONE
 70
-8000
  9
$LIGHTGLYPHDISPLAY
280
1
  9
$TILEMODELIGHTSYNCH
280
1
  9
$CMATERIAL
347
20
  9
$SOLIDHIST
280
0
  9
$SHOWHIST
280
1
  9
$DWFFRAME
280
2
  9
$DGNFRAME
280
2
  9
$REALWORLDSCALE
290
1
  9
$INTERFERECOLOR
 62
256
  9
$CSHADOW
280
0
  9
$SHADOWPLANELOCATION
 40
0.0
  0
ENDSEC
  0
SECTION
  2
CLASSES
  0
CLASS
  1
ACDBDICTIONARYWDFLT
  2
AcDbDictionaryWithDefault
  3
ObjectDBX Classes
 90
0
 91
0
280
0
281
0
  0
CLASS
  1
SUN
  2
AcDbSun
  3
SCENEOE
 90
1153
 91
0
280
0
281
0
  0
CLASS
  1
VISUALSTYLE
  2
AcDbVisualStyle
  3
ObjectDBX Classes
 90
4095
 91
0
280
0
281
0
  0
CLASS
  1
MATERIAL
  2
AcDbMaterial
  3
ObjectDBX Classes
 90
1153
 91
0
280
0
281
0
  0
CLASS
  1
SCALE
  2
AcDbScale
  3
ObjectDBX Classes
 90
1153
 91
0
280
0
281
0
  0
CLASS
  1
TABLESTYLE
  2
AcDbTableStyle
  3
ObjectDBX Classes
 90
4095
 91
0
280
0
281
0
  0
CLASS
  1
MLEADERSTYLE
  2
AcDbMLeaderStyle
  3
ACDB_MLEADERSTYLE_CLASS
 90
4095
 91
0
280
0
281
0
  0
CLASS
  1
DICTIONARYVAR
  2
AcDbDictionaryVar
  3
ObjectDBX Classes
 90
0
 91
0
280
0
281
0
  0
CLASS
  1
CELLSTYLEMAP
  2
AcDbCellStyleMap
  3
ObjectDBX Classes
 90
1152
 91
0
280
0
281
0
  0
CLASS
  1
MENTALRAYRENDERSETTINGS
  2
AcDbMentalRayRenderSettings
  3
SCENEOE
 90
1024
 91
0
280
0
281
0
  0
CLASS
  1
ACDBDETAILVIEWSTYLE
  2
AcDbDetailViewStyle
  3
ObjectDBX Classes
 90
1025
 91
0
280
0
281
0
  0
CLASS
  1
ACDBSECTIONVIEWSTYLE
  2
AcDbSectionViewStyle
  3
ObjectDBX Classes
 90
1025
 91
0
280
0
281
0
  0
CLASS
  1
RASTERVARIABLES
  2
AcDbRasterVariables
  3
ISM
 90
0
 91
0
280
0
281
0
  0
CLASS
  1
LAYOUT
  2
AcDbLayout
  3
ObjectDBX Classes
 90
0
 91
0
280
0
281
0
  0
CLASS
  1
ACDBPLACEHOLDER
  2
AcDbPlaceHolder
  3
ObjectDBX Classes
 90
0
 91
0
280
0
281
0
  0
ENDSEC
  0
SECTION
  2
TABLES
  0
TABLE
  2
VPORT
  5
8
330
0
100
AcDbSymbolTable
 70
1
  0
VPORT
  5
23
330
8
100
AcDbSymbolTableRecord
100
AcDbViewportTableRecord
  2
*Active
 70
0
 10
0.0
 20
0.0
 11
1.0
 21
1.0
 12
0.0
 22
0.0
 13
0.0
 23
0.0
 14
0.5
 24
0.5
 15
0.5
 25
0.5
 16
0.0
 26
0.0
 36
1.0
 17
0.0
 27
0.0
 37
0.0
 40
1000.0
 41
1.34
 42
50.0
 43
0.0
 44
0.0
 50
0.0
 51
0.0
 71
0
 72
1000
 73
1
 74
3
 75
0
 76
0
 77
0
 78
0
281
0
 65
0
146
0.0
  0
ENDTAB
  0
TABLE
  2
LTYPE
  5
2
330
0
100
AcDbSymbolTable
 70
4
  0
LTYPE
  5
24
330
2
100
AcDbSymbolTableRecord
100
AcDbLinetypeTableRecord
  2
ByBlock
 70
0
  3

 72
65
 73
0
 40
0.0
  0
LTYPE
  5
25
330
2
100
AcDbSymbolTableRecord
100
AcDbLinetypeTableRecord
  2
ByLayer
 70
0
  3

 72
65
 73
0
 40
0.0
  0
LTYPE
  5
26
330
2
100
AcDbSymbolTableRecord
100
AcDbLinetypeTableRecord
  2
Continuous
 70
0
  3

 72
65
 73
0
 40
0.0
  0
LTYPE
  5
2F
330
2
100
AcDbSymbolTableRecord
100
AcDbLinetypeTableRecord
  2
DASHED
 70
0
  3

 72
65
 73
1
 40
0.5
 49
-0.25
 74
0
  0
ENDTAB
  0
TABLE
  2
LAYER
  5
1
330
0
100
AcDbSymbolTable
 70
19
  0
LAYER
  5
27
330
1
100
AcDbSymbolTableRecord
100
AcDbLayerTableRecord
  2
0
 70
0
 62
7
  6
Continuous
370
-3
390
13
347
21
  0
LAYER
  5
28
330
1
100
AcDbSymbolTableRecord
100
AcDbLayerTableRecord
  2
Defpoints
 70
0
 62
7
  6
Continuous
290
0
370
-3
390
13
347
21
  0
LAYER
  5
30
330
1
100
AcDbSymbolTableRecord
100
AcDbLayerTableRecord
  2
SITE_BOUNDARY
 70
0
 62
7
  6
CONTINUOUS
370
-3
390
13
347
21
  0
LAYER
  5
31
330
1
100
AcDbSymbolTableRecord
100
AcDbLayerTableRecord
  2
ROAD_SETBACK
 70
0
 62
1
  6
DASHED
370
-3
390
13
347
21
  0
LAYER
  5
32
330
1
100
AcDbSymbolTableRecord
100
AcDbLayerTableRecord
  2
GATE_HOUSE
 70
0
 62
2
  6
CONTINUOUS
370
-3
390
13
347
21
  0
LAYER
  5
33
330
1
100
AcDbSymbolTableRecord
100
AcDbLayerTableRecord
  2
POWER_BLOCK
 70
0
 62
4
  6
CONTINUOUS
370
-3
390
13
347
21
  0
LAYER
  5
34
330
1
100
AcDbSymbolTableRecord
100
AcDbLayerTableRecord
  2
COOLING_TOWER
 70
0
 62
3
  6
CONTINUOUS
370
-3
390
13
347
21
  0
LAYER
  5
35
330
1
100
AcDbSymbolTableRecord
100
AcDbLayerTableRecord
  2
ADMIN_BUILDING
 70
0
 62
6
  6
CONTINUOUS
370
-3
390
13
347
21
  0
LAYER
  5
36
330
1
100
AcDbSymbolTableRecord
100
AcDbLayerTableRecord
  2
GIS
 70
0
 62
5
  6
CONTINUOUS
370
-3
390
13
347
21
  0
LAYER
  5
37
330
1
100
AcDbSymbolTableRecord
100
AcDbLayerTableRecord
  2
FLARE
 70
0
 62
30
  6
CONTINUOUS
370
-3
390
13
347
21
  0
LAYER
  5
38
330
1
100
AcDbSymbolTableRecord
100
AcDbLayerTableRecord
  2
WT_WWT
 70
0
 62
4
  6
CONTINUOUS
370
-3
390
13
347
21
  0
LAYER
  5
39
330
1
100
AcDbSymbolTableRecord
100
AcDbLayerTableRecord
  2
WATER
 70
0
 62
3
  6
CONTINUOUS
370
-3
390
13
347
21
  0
LAYER
  5
3A
330
1
100
AcDbSymbolTableRecord
100
AcDbLayerTableRecord
  2
WAREHOUSE
 70
0
 62
6
  6
CONTINUOUS
370
-3
390
13
347
21
  0
LAYER
  5
3B
330
1
100
AcDbSymbolTableRecord
100
AcDbLayerTableRecord
  2
ROAD
 70
0
 62
8
  6
CONTINUOUS
370
-3
390
13
347
21
  0
LAYER
  5
3C
330
1
100
AcDbSymbolTableRecord
100
AcDbLayerTableRecord
  2
PIPE_RACK
 70
0
 62
8
  6
DASHED
370
-3
390
13
347
21
  0
LAYER
  5
3D
330
1
100
AcDbSymbolTableRecord
100
AcDbLayerTableRecord
  2
MAIN_RACK
 70
0
 62
8
  6
DASHED
370
-3
390
13
347
21
  0
LAYER
  5
3E
330
1
100
AcDbSymbolTableRecord
100
AcDbLayerTableRecord
  2
UTILITY_RACK
 70
0
 62
8
  6
DASHED
370
-3
390
13
347
21
  0
LAYER
  5
3F
330
1
100
AcDbSymbolTableRecord
100
AcDbLayerTableRecord
  2
LABELS
 70
0
 62
7
  6
CONTINUOUS
370
-3
390
13
347
21
  0
LAYER
  5
40
330
1
100
AcDbSymbolTableRecord
100
AcDbLayerTableRecord
  2
DIMENSIONS
 70
0
 62
8
  6
CONTINUOUS
370
-3
390
13
347
21
  0
ENDTAB
  0
TABLE
  2
STYLE
  5
5
330
0
100
AcDbSymbolTable
 70
1
  0
STYLE
  5
29
330
5
100
AcDbSymbolTableRecord
100
AcDbTextStyleTableRecord
  2
Standard
 70
0
 40
0.0
 41
1.0
 50
0.0
 71
0
 42
2.5
  3
txt
  4

  0
ENDTAB
  0
TABLE
  2
VIEW
  5
7
330
0
100
AcDbSymbolTable
 70
0
  0
ENDTAB
  0
TABLE
  2
UCS
  5
6
330
0
100
AcDbSymbolTable
 70
0
  0
ENDTAB
  0
TABLE
  2
APPID
  5
3
330
0
100
AcDbSymbolTable
 70
3
  0
APPID
  5
2A
330
3
100
AcDbSymbolTableRecord
100
AcDbRegAppTableRecord
  2
ACAD
 70
0
  0
APPID
  5
1CC
330
3
100
AcDbSymbolTableRecord
100
AcDbRegAppTableRecord
  2
HATCHBACKGROUNDCOLOR
 70
0
  0
APPID
  5
1CD
330
3
100
AcDbSymbolTableRecord
100
AcDbRegAppTableRecord
  2
EZDXF
 70
0
  0
ENDTAB
  0
TABLE
  2
DIMSTYLE
  5
4
330
0
100
AcDbSymbolTable
 70
1
100
AcDbDimStyleTable
  0
DIMSTYLE
105
2B
330
4
100
AcDbSymbolTableRecord
100
AcDbDimStyleTableRecord
  2
Standard
 70
0
 40
1.0
 41
2.5
 42
0.625
 43
3.75
 44
1.25
 45
0.0
 46
0.0
 47
0.0
 48
0.0
 49
2.5
140
2.5
141
2.5
142
0.0
143
0.03937007874
144
1.0
145
0.0
146
1.0
147
0.625
148
0.0
 69
0
 70
0
 71
0
 72
0
 73
0
 74
0
 75
0
 76
0
 77
1
 78
8
 79
3
170
0
171
3
172
1
173
0
174
0
175
0
176
0
177
0
178
0
179
2
271
2
272
2
273
2
274
3
275
0
276
0
277
2
278
44
279
0
280
0
281
0
282
0
283
0
284
8
285
0
286
0
288
0
289
3
290
0
371
-2
372
-2
  0
ENDTAB
  0
TABLE
  2
BLOCK_RECORD
  5
9
330
0
100
AcDbSymbolTable
 70
23
  0
BLOCK_RECORD
  5
17
330
9
100
AcDbSymbolTableRecord
100
AcDbBlockTableRecord
  2
*Model_Space
340
1A
 70
0
280
1
281
0
  0
BLOCK_RECORD
  5
1B
330
9
100
AcDbSymbolTableRecord
100
AcDbBlockTableRecord
  2
*Paper_Space
340
1E
 70
0
280
1
281
0
  0
BLOCK_RECORD
  5
5E
330
9
100
AcDbSymbolTableRecord
100
AcDbBlockTableRecord
  2
*D1
340
0
 70
0
280
1
281
0
  0
BLOCK_RECORD
  5
63
330
9
100
AcDbSymbolTableRecord
100
AcDbBlockTableRecord
  2
_CLOSEDFILLED
340
0
 70
0
280
1
281
0
  0
BLOCK_RECORD
  5
72
330
9
100
AcDbSymbolTableRecord
100
AcDbBlockTableRecord
  2
*D2
340
0
 70
0
280
1
281
0
  0
BLOCK_RECORD
  5
86
330
9
100
AcDbSymbolTableRecord
100
AcDbBlockTableRecord
  2
*D3
340
0
 70
0
280
1
281
0
  0
BLOCK_RECORD
  5
96
330
9
100
AcDbSymbolTableRecord
100
AcDbBlockTableRecord
  2
*D4
340
0
 70
0
280
1
281
0
  0
BLOCK_RECORD
  5
AA
330
9
100
AcDbSymbolTableRecord
100
AcDbBlockTableRecord
  2
*D5
340
0
 70
0
280
1
281
0
  0
BLOCK_RECORD
  5
BA
330
9
100
AcDbSymbolTableRecord
100
AcDbBlockTableRecord
  2
*D6
340
0
 70
0
280
1
281
0
  0
BLOCK_RECORD
  5
CE
330
9
100
AcDbSymbolTableRecord
100
AcDbBlockTableRecord
  2
*D7
340
0
 70
0
280
1
281
0
  0
BLOCK_RECORD
  5
DE
330
9
100
AcDbSymbolTableRecord
100
AcDbBlockTableRecord
  2
*D8
340
0
 70
0
280
1
281
0
  0
BLOCK_RECORD
  5
F2
330
9
100
AcDbSymbolTableRecord
100
AcDbBlockTableRecord
  2
*D9
340
0
 70
0
280
1
281
0
  0
BLOCK_RECORD
  5
102
330
9
100
AcDbSymbolTableRecord
100
AcDbBlockTableRecord
  2
*D10
340
0
 70
0
280
1
281
0
  0
BLOCK_RECORD
  5
116
330
9
100
AcDbSymbolTableRecord
100
AcDbBlockTableRecord
  2
*D11
340
0
 70
0
280
1
281
0
  0
BLOCK_RECORD
  5
126
330
9
100
AcDbSymbolTableRecord
100
AcDbBlockTableRecord
  2
*D12
340
0
 70
0
280
1
281
0
  0
BLOCK_RECORD
  5
13A
330
9
100
AcDbSymbolTableRecord
100
AcDbBlockTableRecord
  2
*D13
340
0
 70
0
280
1
281
0
  0
BLOCK_RECORD
  5
14A
330
9
100
AcDbSymbolTableRecord
100
AcDbBlockTableRecord
  2
*D14
340
0
 70
0
280
1
281
0
  0
BLOCK_RECORD
  5
15E
330
9
100
AcDbSymbolTableRecord
100
AcDbBlockTableRecord
  2
*D15
340
0
 70
0
280
1
281
0
  0
BLOCK_RECORD
  5
16E
330
9
100
AcDbSymbolTableRecord
100
AcDbBlockTableRecord
  2
*D16
340
0
 70
0
280
1
281
0
  0
BLOCK_RECORD
  5
182
330
9
100
AcDbSymbolTableRecord
100
AcDbBlockTableRecord
  2
*D17
340
0
 70
0
280
1
281
0
  0
BLOCK_RECORD
  5
192
330
9
100
AcDbSymbolTableRecord
100
AcDbBlockTableRecord
  2
*D18
340
0
 70
0
280
1
281
0
  0
BLOCK_RECORD
  5
1A6
330
9
100
AcDbSymbolTableRecord
100
AcDbBlockTableRecord
  2
*D19
340
0
 70
0
280
1
281
0
  0
BLOCK_RECORD
  5
1B6
330
9
100
AcDbSymbolTableRecord
100
AcDbBlockTableRecord
  2
*D20
340
0
 70
0
280
1
281
0
  0
ENDTAB
  0
ENDSEC
  0
SECTION
  2
BLOCKS
  0
BLOCK
  5
18
330
17
100
AcDbEntity
  8
0
100
AcDbBlockBegin
  2
*Model_Space
 70
0
 10
0.0
 20
0.0
 30
0.0
  3
*Model_Space
  1

  0
ENDBLK
  5
19
330
17
100
AcDbEntity
  8
0
100
AcDbBlockEnd
  0
BLOCK
  5
1C
330
1B
100
AcDbEntity
  8
0
100
AcDbBlockBegin
  2
*Paper_Space
 70
0
 10
0.0
 20
0.0
 30
0.0
  3
*Paper_Space
  1

  0
ENDBLK
  5
1D
330
1B
100
AcDbEntity
  8
0
100
AcDbBlockEnd
  0
BLOCK
  5
5F
330
5E
100
AcDbEntity
  8
0
100
AcDbBlockBegin
  2
*D1
 70
1
 10
0.0
 20
0.0
 30
0.0
  3
*D1
  1

  0
LINE
  5
61
330
5E
100
AcDbEntity
  8
0
100
AcDbLine
 10
238.0
 20
254.0
 30
0.0
 11
238.0
 21
248.0
 31
0.0
  0
LINE
  5
62
330
5E
100
AcDbEntity
  8
0
100
AcDbLine
 10
250.0
 20
254.0
 30
0.0
 11
250.0
 21
248.0
 31
0.0
  0
INSERT
  5
67
330
5E
100
AcDbEntity
  8
DIMENSIONS
100
AcDbBlockReference
  2
_CLOSEDFILLED
 10
238.0
 20
248.0
 30
0.0
 41
0.25
 42
0.25
 50
180.0
  0
INSERT
  5
69
330
5E
100
AcDbEntity
  8
DIMENSIONS
100
AcDbBlockReference
  2
_CLOSEDFILLED
 10
250.0
 20
248.0
 30
0.0
 41
0.25
 42
0.25
  0
LINE
  5
6B
330
5E
100
AcDbEntity
  8
0
100
AcDbLine
 10
238.25
 20
248.0
 30
0.0
 11
242.0
 21
248.0
 31
0.0
  0
LINE
  5
6C
330
5E
100
AcDbEntity
  8
0
100
AcDbLine
 10
246.0
 20
248.0
 30
0.0
 11
249.75
 21
248.0
 31
0.0
  0
MTEXT
  5
6D
330
5E
100
AcDbEntity
  8
DIMENSIONS
100
AcDbMText
 10
244.0
 20
248.0
 30
0.0
 40
2.0
 71
5
  1
12
  0
POINT
  5
6E
330
5E
100
AcDbEntity
  8
Defpoints
100
AcDbPoint
 10
238.0
 20
248.0
 30
0.0
  0
POINT
  5
6F
330
5E
100
AcDbEntity
  8
Defpoints
100
AcDbPoint
 10
238.0
 20
254.0
 30
0.0
  0
POINT
  5
70
330
5E
100
AcDbEntity
  8
Defpoints
100
AcDbPoint
 10
250.0
 20
254.0
 30
0.0
  0
ENDBLK
  5
60
330
5E
100
AcDbEntity
  8
0
100
AcDbBlockEnd
  0
BLOCK
  5
64
330
63
100
AcDbEntity
  8
0
100
AcDbBlockBegin
  2
_CLOSEDFILLED
 70
0
 10
0.0
 20
0.0
 30
0.0
  3
_CLOSEDFILLED
  1

  0
SOLID
  5
66
330
63
100
AcDbEntity
  8
0
  6
BYBLOCK
 62
0
100
AcDbTrace
 10
-1.0
 20
0.16439898372402537
 30
0.0
 11
0.0
 21
0.0
 31
0.0
 12
-1.0
 22
-0.16439898372402537
 32
0.0
 13
-1.0
 23
-0.16439898372402537
 33
0.0
  0
ENDBLK
  5
65
330
63
100
AcDbEntity
  8
0
100
AcDbBlockEnd
  0
BLOCK
  5
73
330
72
100
AcDbEntity
  8
0
100
AcDbBlockBegin
  2
*D2
 70
1
 10
0.0
 20
0.0
 30
0.0
  3
*D2
  1

  0
LINE
  5
75
330
72
100
AcDbEntity
  8
0
100
AcDbLine
 10
250.0
 20
254.0
 30
0.0
 11
256.0
 21
254.0
 31
0.0
  0
LINE
  5
76
330
72
100
AcDbEntity
  8
0
100
AcDbLine
 10
250.0
 20
266.00000000000006
 30
0.0
 11
256.0
 21
266.00000000000006
 31
0.0
  0
INSERT
  5
77
330
72
100
AcDbEntity
  8
DIMENSIONS
100
AcDbBlockReference
  2
_CLOSEDFILLED
 10
256.0
 20
254.0
 30
0.0
 41
0.25
 42
0.25
 50
270.0
  0
INSERT
  5
79
330
72
100
AcDbEntity
  8
DIMENSIONS
100
AcDbBlockReference
  2
_CLOSEDFILLED
 10
256.0
 20
266.00000000000006
 30
0.0
 41
0.25
 42
0.25
 50
90.0
  0
LINE
  5
7B
330
72
100
AcDbEntity
  8
0
100
AcDbLine
 10
256.0
 20
254.25
 30
0.0
 11
256.0
 21
258.0
 31
0.0
  0
LINE
  5
7C
330
72
100
AcDbEntity
  8
0
100
AcDbLine
 10
256.0
 20
262.0
 30
0.0
 11
256.0
 21
265.75000000000006
 31
0.0
  0
MTEXT
  5
7D
330
72
100
AcDbEntity
  8
DIMENSIONS
100
AcDbMText
 10
256.0
 20
260.0
 30
0.0
 40
2.0
 71
5
  1
12
 50
90.0
  0
POINT
  5
7E
330
72
100
AcDbEntity
  8
Defpoints
100
AcDbPoint
 10
256.0
 20
254.0
 30
0.0
  0
POINT
  5
7F
330
72
100
AcDbEntity
  8
Defpoints
100
AcDbPoint
 10
250.0
 20
254.0
 30
0.0
  0
POINT
  5
80
330
72
100
AcDbEntity
  8
Defpoints
100
AcDbPoint
 10
250.0
 20
266.00000000000006
 30
0.0
  0
ENDBLK
  5
74
330
72
100
AcDbEntity
  8
0
100
AcDbBlockEnd
  0
BLOCK
  5
87
330
86
100
AcDbEntity
  8
0
100
AcDbBlockBegin
  2
*D3
 70
1
 10
0.0
 20
0.0
 30
0.0
  3
*D3
  1

  0
LINE
  5
89
330
86
100
AcDbEntity
  8
0
100
AcDbLine
 10
392.0
 20
188.0
 30
0.0
 11
392.0
 21
182.0
 31
0.0
  0
LINE
  5
8A
330
86
100
AcDbEntity
  8
0
100
AcDbLine
 10
502.0
 20
188.0
 30
0.0
 11
502.0
 21
182.0
 31
0.0
  0
INSERT
  5
8B
330
86
100
AcDbEntity
  8
DIMENSIONS
100
AcDbBlockReference
  2
_CLOSEDFILLED
 10
392.0
 20
182.0
 30
0.0
 41
0.25
 42
0.25
 50
180.0
  0
INSERT
  5
8D
330
86
100
AcDbEntity
  8
DIMENSIONS
100
AcDbBlockReference
  2
_CLOSEDFILLED
 10
502.0
 20
182.0
 30
0.0
 41
0.25
 42
0.25
  0
LINE
  5
8F
330
86
100
AcDbEntity
  8
0
100
AcDbLine
 10
392.25
 20
182.0
 30
0.0
 11
444.0
 21
182.0
 31
0.0
  0
LINE
  5
90
330
86
100
AcDbEntity
  8
0
100
AcDbLine
 10
450.0
 20
182.0
 30
0.0
 11
501.75
 21
182.0
 31
0.0
  0
MTEXT
  5
91
330
86
100
AcDbEntity
  8
DIMENSIONS
100
AcDbMText
 10
447.0
 20
182.0
 30
0.0
 40
2.0
 71
5
  1
110
  0
POINT
  5
92
330
86
100
AcDbEntity
  8
Defpoints
100
AcDbPoint
 10
392.0
 20
182.0
 30
0.0
  0
POINT
  5
93
330
86
100
AcDbEntity
  8
Defpoints
100
AcDbPoint
 10
392.0
 20
188.0
 30
0.0
  0
POINT
  5
94
330
86
100
AcDbEntity
  8
Defpoints
100
AcDbPoint
 10
502.0
 20
188.0
 30
0.0
  0
ENDBLK
  5
88
330
86
100
AcDbEntity
  8
0
100
AcDbBlockEnd
  0
BLOCK
  5
97
330
96
100
AcDbEntity
  8
0
100
AcDbBlockBegin
  2
*D4
 70
1
 10
0.0
 20
0.0
 30
0.0
  3
*D4
  1

  0
LINE
  5
99
330
96
100
AcDbEntity
  8
0
100
AcDbLine
 10
502.0
 20
188.0
 30
0.0
 11
508.0
 21
188.0
 31
0.0
  0
LINE
  5
9A
330
96
100
AcDbEntity
  8
0
100
AcDbLine
 10
502.0
 20
239.0
 30
0.0
 11
508.0
 21
239.0
 31
0.0
  0
INSERT
  5
9B
330
96
100
AcDbEntity
  8
DIMENSIONS
100
AcDbBlockReference
  2
_CLOSEDFILLED
 10
508.0
 20
188.0
 30
0.0
 41
0.25
 42
0.25
 50
270.0
  0
INSERT
  5
9D
330
96
100
AcDbEntity
  8
DIMENSIONS
100
AcDbBlockReference
  2
_CLOSEDFILLED
 10
508.0
 20
239.0
 30
0.0
 41
0.25
 42
0.25
 50
90.0
  0
LINE
  5
9F
330
96
100
AcDbEntity
  8
0
100
AcDbLine
 10
508.0
 20
188.25
 30
0.0
 11
508.0
 21
211.5
 31
0.0
  0
LINE
  5
A0
330
96
100
AcDbEntity
  8
0
100
AcDbLine
 10
508.0
 20
215.5
 30
0.0
 11
508.0
 21
238.75
 31
0.0
  0
MTEXT
  5
A1
330
96
100
AcDbEntity
  8
DIMENSIONS
100
AcDbMText
 10
508.0
 20
213.5
 30
0.0
 40
2.0
 71
5
  1
51
 50
90.0
  0
POINT
  5
A2
330
96
100
AcDbEntity
  8
Defpoints
100
AcDbPoint
 10
508.0
 20
188.0
 30
0.0
  0
POINT
  5
A3
330
96
100
AcDbEntity
  8
Defpoints
100
AcDbPoint
 10
502.0
 20
188.0
 30
0.0
  0
POINT
  5
A4
330
96
100
AcDbEntity
  8
Defpoints
100
AcDbPoint
 10
502.0
 20
239.0
 30
0.0
  0
ENDBLK
  5
98
330
96
100
AcDbEntity
  8
0
100
AcDbBlockEnd
  0
BLOCK
  5
AB
330
AA
100
AcDbEntity
  8
0
100
AcDbBlockBegin
  2
*D5
 70
1
 10
0.0
 20
0.0
 30
0.0
  3
*D5
  1

  0
LINE
  5
AD
330
AA
100
AcDbEntity
  8
0
100
AcDbLine
 10
82.0
 20
48.0
 30
0.0
 11
82.0
 21
42.0
 31
0.0
  0
LINE
  5
AE
330
AA
100
AcDbEntity
  8
0
100
AcDbLine
 10
119.0
 20
48.0
 30
0.0
 11
119.0
 21
42.0
 31
0.0
  0
INSERT
  5
AF
330
AA
100
AcDbEntity
  8
DIMENSIONS
100
AcDbBlockReference
  2
_CLOSEDFILLED
 10
82.0
 20
42.0
 30
0.0
 41
0.25
 42
0.25
 50
180.0
  0
INSERT
  5
B1
330
AA
100
AcDbEntity
  8
DIMENSIONS
100
AcDbBlockReference
  2
_CLOSEDFILLED
 10
119.0
 20
42.0
 30
0.0
 41
0.25
 42
0.25
  0
LINE
  5
B3
330
AA
100
AcDbEntity
  8
0
100
AcDbLine
 10
82.25
 20
42.0
 30
0.0
 11
98.5
 21
42.0
 31
0.0
  0
LINE
  5
B4
330
AA
100
AcDbEntity
  8
0
100
AcDbLine
 10
102.5
 20
42.0
 30
0.0
 11
118.75
 21
42.0
 31
0.0
  0
MTEXT
  5
B5
330
AA
100
AcDbEntity
  8
DIMENSIONS
100
AcDbMText
 10
100.5
 20
42.0
 30
0.0
 40
2.0
 71
5
  1
37
  0
POINT
  5
B6
330
AA
100
AcDbEntity
  8
Defpoints
100
AcDbPoint
 10
82.0
 20
42.0
 30
0.0
  0
POINT
  5
B7
330
AA
100
AcDbEntity
  8
Defpoints
100
AcDbPoint
 10
82.0
 20
48.0
 30
0.0
  0
POINT
  5
B8
330
AA
100
AcDbEntity
  8
Defpoints
100
AcDbPoint
 10
119.0
 20
48.0
 30
0.0
  0
ENDBLK
  5
AC
330
AA
100
AcDbEntity
  8
0
100
AcDbBlockEnd
  0
BLOCK
  5
BB
330
BA
100
AcDbEntity
  8
0
100
AcDbBlockBegin
  2
*D6
 70
1
 10
0.0
 20
0.0
 30
0.0
  3
*D6
  1

  0
LINE
  5
BD
330
BA
100
AcDbEntity
  8
0
100
AcDbLine
 10
119.0
 20
48.0
 30
0.0
 11
125.0
 21
48.0
 31
0.0
  0
LINE
  5
BE
330
BA
100
AcDbEntity
  8
0
100
AcDbLine
 10
119.0
 20
85.0
 30
0.0
 11
125.0
 21
85.0
 31
0.0
  0
INSERT
  5
BF
330
BA
100
AcDbEntity
  8
DIMENSIONS
100
AcDbBlockReference
  2
_CLOSEDFILLED
 10
125.0
 20
48.0
 30
0.0
 41
0.25
 42
0.25
 50
270.0
  0
INSERT
  5
C1
330
BA
100
AcDbEntity
  8
DIMENSIONS
100
AcDbBlockReference
  2
_CLOSEDFILLED
 10
125.0
 20
85.0
 30
0.0
 41
0.25
 42
0.25
 50
90.0
  0
LINE
  5
C3
330
BA
100
AcDbEntity
  8
0
100
AcDbLine
 10
125.0
 20
48.25
 30
0.0
 11
125.0
 21
64.5
 31
0.0
  0
LINE
  5
C4
330
BA
100
AcDbEntity
  8
0
100
AcDbLine
 10
125.0
 20
68.5
 30
0.0
 11
125.0
 21
84.75
 31
0.0
  0
MTEXT
  5
C5
330
BA
100
AcDbEntity
  8
DIMENSIONS
100
AcDbMText
 10
125.0
 20
66.5
 30
0.0
 40
2.0
 71
5
  1
37
 50
90.0
  0
POINT
  5
C6
330
BA
100
AcDbEntity
  8
Defpoints
100
AcDbPoint
 10
125.0
 20
48.0
 30
0.0
  0
POINT
  5
C7
330
BA
100
AcDbEntity
  8
Defpoints
100
AcDbPoint
 10
119.0
 20
48.0
 30
0.0
  0
POINT
  5
C8
330
BA
100
AcDbEntity
  8
Defpoints
100
AcDbPoint
 10
119.0
 20
85.0
 30
0.0
  0
ENDBLK
  5
BC
330
BA
100
AcDbEntity
  8
0
100
AcDbBlockEnd
  0
BLOCK
  5
CF
330
CE
100
AcDbEntity
  8
0
100
AcDbBlockBegin
  2
*D7
 70
1
 10
0.0
 20
0.0
 30
0.0
  3
*D7
  1

  0
LINE
  5
D1
330
CE
100
AcDbEntity
  8
0
100
AcDbLine
 10
164.0
 20
56.0
 30
0.0
 11
164.0
 21
50.0
 31
0.0
  0
LINE
  5
D2
330
CE
100
AcDbEntity
  8
0
100
AcDbLine
 10
314.0
 20
56.0
 30
0.0
 11
314.0
 21
50.0
 31
0.0
  0
INSERT
  5
D3
330
CE
100
AcDbEntity
  8
DIMENSIONS
100
AcDbBlockReference
  2
_CLOSEDFILLED
 10
164.0
 20
50.0
 30
0.0
 41
0.25
 42
0.25
 50
180.0
  0
INSERT
  5
D5
330
CE
100
AcDbEntity
  8
DIMENSIONS
100
AcDbBlockReference
  2
_CLOSEDFILLED
 10
314.0
 20
50.0
 30
0.0
 41
0.25
 42
0.25
  0
LINE
  5
D7
330
CE
100
AcDbEntity
  8
0
100
AcDbLine
 10
164.25
 20
50.0
 30
0.0
 11
236.0
 21
50.0
 31
0.0
  0
LINE
  5
D8
330
CE
100
AcDbEntity
  8
0
100
AcDbLine
 10
242.0
 20
50.0
 30
0.0
 11
313.75
 21
50.0
 31
0.0
  0
MTEXT
  5
D9
330
CE
100
AcDbEntity
  8
DIMENSIONS
100
AcDbMText
 10
239.0
 20
50.0
 30
0.0
 40
2.0
 71
5
  1
150
  0
POINT
  5
DA
330
CE
100
AcDbEntity
  8
Defpoints
100
AcDbPoint
 10
164.0
 20
50.0
 30
0.0
  0
POINT
  5
DB
330
CE
100
AcDbEntity
  8
Defpoints
100
AcDbPoint
 10
164.0
 20
56.0
 30
0.0
  0
POINT
  5
DC
330
CE
100
AcDbEntity
  8
Defpoints
100
AcDbPoint
 10
314.0
 20
56.0
 30
0.0
  0
ENDBLK
  5
D0
330
CE
100
AcDbEntity
  8
0
100
AcDbBlockEnd
  0
BLOCK
  5
DF
330
DE
100
AcDbEntity
  8
0
100
AcDbBlockBegin
  2
*D8
 70
1
 10
0.0
 20
0.0
 30
0.0
  3
*D8
  1

  0
LINE
  5
E1
330
DE
100
AcDbEntity
  8
0
100
AcDbLine
 10
314.0
 20
56.0
 30
0.0
 11
320.0
 21
56.0
 31
0.0
  0
LINE
  5
E2
330
DE
100
AcDbEntity
  8
0
100
AcDbLine
 10
314.0
 20
206.0
 30
0.0
 11
320.0
 21
206.0
 31
0.0
  0
INSERT
  5
E3
330
DE
100
AcDbEntity
  8
DIMENSIONS
100
AcDbBlockReference
  2
_CLOSEDFILLED
 10
320.0
 20
56.0
 30
0.0
 41
0.25
 42
0.25
 50
270.0
  0
INSERT
  5
E5
330
DE
100
AcDbEntity
  8
DIMENSIONS
100
AcDbBlockReference
  2
_CLOSEDFILLED
 10
320.0
 20
206.0
 30
0.0
 41
0.25
 42
0.25
 50
90.0
  0
LINE
  5
E7
330
DE
100
AcDbEntity
  8
0
100
AcDbLine
 10
320.0
 20
56.25
 30
0.0
 11
320.0
 21
128.0
 31
0.0
  0
LINE
  5
E8
330
DE
100
AcDbEntity
  8
0
100
AcDbLine
 10
320.0
 20
134.0
 30
0.0
 11
320.0
 21
205.75
 31
0.0
  0
MTEXT
  5
E9
330
DE
100
AcDbEntity
  8
DIMENSIONS
100
AcDbMText
 10
320.0
 20
131.0
 30
0.0
 40
2.0
 71
5
  1
150
 50
90.0
  0
POINT
  5
EA
330
DE
100
AcDbEntity
  8
Defpoints
100
AcDbPoint
 10
320.0
 20
56.0
 30
0.0
  0
POINT
  5
EB
330
DE
100
AcDbEntity
  8
Defpoints
100
AcDbPoint
 10
314.0
 20
56.0
 30
0.0
  0
POINT
  5
EC
330
DE
100
AcDbEntity
  8
Defpoints
100
AcDbPoint
 10
314.0
 20
206.0
 30
0.0
  0
ENDBLK
  5
E0
330
DE
100
AcDbEntity
  8
0
100
AcDbBlockEnd
  0
BLOCK
  5
F3
330
F2
100
AcDbEntity
  8
0
100
AcDbBlockBegin
  2
*D9
 70
1
 10
0.0
 20
0.0
 30
0.0
  3
*D9
  1

  0
LINE
  5
F5
330
F2
100
AcDbEntity
  8
0
100
AcDbLine
 10
20.0
 20
256.0
 30
0.0
 11
20.0
 21
250.0
 31
0.0
  0
LINE
  5
F6
330
F2
100
AcDbEntity
  8
0
100
AcDbLine
 10
60.0
 20
256.0
 30
0.0
 11
60.0
 21
250.0
 31
0.0
  0
INSERT
  5
F7
330
F2
100
AcDbEntity
  8
DIMENSIONS
100
AcDbBlockReference
  2
_CLOSEDFILLED
 10
20.0
 20
250.0
 30
0.0
 41
0.25
 42
0.25
 50
180.0
  0
INSERT
  5
F9
330
F2
100
AcDbEntity
  8
DIMENSIONS
100
AcDbBlockReference
  2
_CLOSEDFILLED
 10
60.0
 20
250.0
 30
0.0
 41
0.25
 42
0.25
  0
LINE
  5
FB
330
F2
100
AcDbEntity
  8
0
100
AcDbLine
 10
20.25
 20
250.0
 30
0.0
 11
38.0
 21
250.0
 31
0.0
  0
LINE
  5
FC
330
F2
100
AcDbEntity
  8
0
100
AcDbLine
 10
42.0
 20
250.0
 30
0.0
 11
59.75
 21
250.0
 31
0.0
  0
MTEXT
  5
FD
330
F2
100
AcDbEntity
  8
DIMENSIONS
100
AcDbMText
 10
40.0
 20
250.0
 30
0.0
 40
2.0
 71
5
  1
40
  0
POINT
  5
FE
330
F2
100
AcDbEntity
  8
Defpoints
100
AcDbPoint
 10
20.0
 20
250.0
 30
0.0
  0
POINT
  5
FF
330
F2
100
AcDbEntity
  8
Defpoints
100
AcDbPoint
 10
20.0
 20
256.0
 30
0.0
  0
POINT
  5
100
330
F2
100
AcDbEntity
  8
Defpoints
100
AcDbPoint
 10
60.0
 20
256.0
 30
0.0
  0
ENDBLK
  5
F4
330
F2
100
AcDbEntity
  8
0
100
AcDbBlockEnd
  0
BLOCK
  5
103
330
102
100
AcDbEntity
  8
0
100
AcDbBlockBegin
  2
*D10
 70
1
 10
0.0
 20
0.0
 30
0.0
  3
*D10
  1

  0
LINE
  5
105
330
102
100
AcDbEntity
  8
0
100
AcDbLine
 10
60.0
 20
256.0
 30
0.0
 11
66.0
 21
256.0
 31
0.0
  0
LINE
  5
106
330
102
100
AcDbEntity
  8
0
100
AcDbLine
 10
60.0
 20
296.0
 30
0.0
 11
66.0
 21
296.0
 31
0.0
  0
INSERT
  5
107
330
102
100
AcDbEntity
  8
DIMENSIONS
100
AcDbBlockReference
  2
_CLOSEDFILLED
 10
66.0
 20
256.0
 30
0.0
 41
0.25
 42
0.25
 50
270.0
  0
INSERT
  5
109
330
102
100
AcDbEntity
  8
DIMENSIONS
100
AcDbBlockReference
  2
_CLOSEDFILLED
 10
66.0
 20
296.0
 30
0.0
 41
0.25
 42
0.25
 50
90.0
  0
LINE
  5
10B
330
102
100
AcDbEntity
  8
0
100
AcDbLine
 10
66.0
 20
256.25
 30
0.0
 11
66.0
 21
274.0
 31
0.0
  0
LINE
  5
10C
330
102
100
AcDbEntity
  8
0
100
AcDbLine
 10
66.0
 20
278.0
 30
0.0
 11
66.0
 21
295.75
 31
0.0
  0
MTEXT
  5
10D
330
102
100
AcDbEntity
  8
DIMENSIONS
100
AcDbMText
 10
66.0
 20
276.0
 30
0.0
 40
2.0
 71
5
  1
40
 50
90.0
  0
POINT
  5
10E
330
102
100
AcDbEntity
  8
Defpoints
100
AcDbPoint
 10
66.0
 20
256.0
 30
0.0
  0
POINT
  5
10F
330
102
100
AcDbEntity
  8
Defpoints
100
AcDbPoint
 10
60.0
 20
256.0
 30
0.0
  0
POINT
  5
110
330
102
100
AcDbEntity
  8
Defpoints
100
AcDbPoint
 10
60.0
 20
296.0
 30
0.0
  0
ENDBLK
  5
104
330
102
100
AcDbEntity
  8
0
100
AcDbBlockEnd
  0
BLOCK
  5
117
330
116
100
AcDbEntity
  8
0
100
AcDbBlockBegin
  2
*D11
 70
1
 10
0.0
 20
0.0
 30
0.0
  3
*D11
  1

  0
LINE
  5
119
330
116
100
AcDbEntity
  8
0
100
AcDbLine
 10
8.0
 20
40.0
 30
0.0
 11
8.0
 21
34.0
 31
0.0
  0
LINE
  5
11A
330
116
100
AcDbEntity
  8
0
100
AcDbLine
 10
48.0
 20
40.0
 30
0.0
 11
48.0
 21
34.0
 31
0.0
  0
INSERT
  5
11B
330
116
100
AcDbEntity
  8
DIMENSIONS
100
AcDbBlockReference
  2
_CLOSEDFILLED
 10
8.0
 20
34.0
 30
0.0
 41
0.25
 42
0.25
 50
180.0
  0
INSERT
  5
11D
330
116
100
AcDbEntity
  8
DIMENSIONS
100
AcDbBlockReference
  2
_CLOSEDFILLED
 10
48.0
 20
34.0
 30
0.0
 41
0.25
 42
0.25
  0
LINE
  5
11F
330
116
100
AcDbEntity
  8
0
100
AcDbLine
 10
8.25
 20
34.0
 30
0.0
 11
26.0
 21
34.0
 31
0.0
  0
LINE
  5
120
330
116
100
AcDbEntity
  8
0
100
AcDbLine
 10
30.000000000000004
 20
34.0
 30
0.0
 11
47.75
 21
34.0
 31
0.0
  0
MTEXT
  5
121
330
116
100
AcDbEntity
  8
DIMENSIONS
100
AcDbMText
 10
28.0
 20
34.0
 30
0.0
 40
2.0
 71
5
  1
40
  0
POINT
  5
122
330
116
100
AcDbEntity
  8
Defpoints
100
AcDbPoint
 10
8.0
 20
34.0
 30
0.0
  0
POINT
  5
123
330
116
100
AcDbEntity
  8
Defpoints
100
AcDbPoint
 10
8.0
 20
40.0
 30
0.0
  0
POINT
  5
124
330
116
100
AcDbEntity
  8
Defpoints
100
AcDbPoint
 10
48.0
 20
40.0
 30
0.0
  0
ENDBLK
  5
118
330
116
100
AcDbEntity
  8
0
100
AcDbBlockEnd
  0
BLOCK
  5
127
330
126
100
AcDbEntity
  8
0
100
AcDbBlockBegin
  2
*D12
 70
1
 10
0.0
 20
0.0
 30
0.0
  3
*D12
  1

  0
LINE
  5
129
330
126
100
AcDbEntity
  8
0
100
AcDbLine
 10
48.0
 20
40.0
 30
0.0
 11
54.0
 21
40.0
 31
0.0
  0
LINE
  5
12A
330
126
100
AcDbEntity
  8
0
100
AcDbLine
 10
48.0
 20
223.0
 30
0.0
 11
54.0
 21
223.0
 31
0.0
  0
INSERT
  5
12B
330
126
100
AcDbEntity
  8
DIMENSIONS
100
AcDbBlockReference
  2
_CLOSEDFILLED
 10
54.0
 20
40.0
 30
0.0
 41
0.25
 42
0.25
 50
270.0
  0
INSERT
  5
12D
330
126
100
AcDbEntity
  8
DIMENSIONS
100
AcDbBlockReference
  2
_CLOSEDFILLED
 10
54.0
 20
223.0
 30
0.0
 41
0.25
 42
0.25
 50
90.0
  0
LINE
  5
12F
330
126
100
AcDbEntity
  8
0
100
AcDbLine
 10
54.0
 20
40.25
 30
0.0
 11
54.0
 21
128.5
 31
0.0
  0
LINE
  5
130
330
126
100
AcDbEntity
  8
0
100
AcDbLine
 10
54.0
 20
134.5
 30
0.0
 11
54.0
 21
222.75
 31
0.0
  0
MTEXT
  5
131
330
126
100
AcDbEntity
  8
DIMENSIONS
100
AcDbMText
 10
54.0
 20
131.5
 30
0.0
 40
2.0
 71
5
  1
183
 50
90.0
  0
POINT
  5
132
330
126
100
AcDbEntity
  8
Defpoints
100
AcDbPoint
 10
54.0
 20
40.0
 30
0.0
  0
POINT
  5
133
330
126
100
AcDbEntity
  8
Defpoints
100
AcDbPoint
 10
48.0
 20
40.0
 30
0.0
  0
POINT
  5
134
330
126
100
AcDbEntity
  8
Defpoints
100
AcDbPoint
 10
48.0
 20
223.0
 30
0.0
  0
ENDBLK
  5
128
330
126
100
AcDbEntity
  8
0
100
AcDbBlockEnd
  0
BLOCK
  5
13B
330
13A
100
AcDbEntity
  8
0
100
AcDbBlockBegin
  2
*D13
 70
1
 10
0.0
 20
0.0
 30
0.0
  3
*D13
  1

  0
LINE
  5
13D
330
13A
100
AcDbEntity
  8
0
100
AcDbLine
 10
360.0
 20
72.0
 30
0.0
 11
360.0
 21
66.0
 31
0.0
  0
LINE
  5
13E
330
13A
100
AcDbEntity
  8
0
100
AcDbLine
 10
416.0
 20
72.0
 30
0.0
 11
416.0
 21
66.0
 31
0.0
  0
INSERT
  5
13F
330
13A
100
AcDbEntity
  8
DIMENSIONS
100
AcDbBlockReference
  2
_CLOSEDFILLED
 10
360.0
 20
66.0
 30
0.0
 41
0.25
 42
0.25
 50
180.0
  0
INSERT
  5
141
330
13A
100
AcDbEntity
  8
DIMENSIONS
100
AcDbBlockReference
  2
_CLOSEDFILLED
 10
416.0
 20
66.0
 30
0.0
 41
0.25
 42
0.25
  0
LINE
  5
143
330
13A
100
AcDbEntity
  8
0
100
AcDbLine
 10
360.25
 20
66.0
 30
0.0
 11
386.0
 21
66.0
 31
0.0
  0
LINE
  5
144
330
13A
100
AcDbEntity
  8
0
100
AcDbLine
 10
390.0
 20
66.0
 30
0.0
 11
415.75
 21
66.0
 31
0.0
  0
MTEXT
  5
145
330
13A
100
AcDbEntity
  8
DIMENSIONS
100
AcDbMText
 10
388.0
 20
66.0
 30
0.0
 40
2.0
 71
5
  1
56
  0
POINT
  5
146
330
13A
100
AcDbEntity
  8
Defpoints
100
AcDbPoint
 10
360.0
 20
66.0
 30
0.0
  0
POINT
  5
147
330
13A
100
AcDbEntity
  8
Defpoints
100
AcDbPoint
 10
360.0
 20
72.0
 30
0.0
  0
POINT
  5
148
330
13A
100
AcDbEntity
  8
Defpoints
100
AcDbPoint
 10
416.0
 20
72.0
 30
0.0
  0
ENDBLK
  5
13C
330
13A
100
AcDbEntity
  8
0
100
AcDbBlockEnd
  0
BLOCK
  5
14B
330
14A
100
AcDbEntity
  8
0
100
AcDbBlockBegin
  2
*D14
 70
1
 10
0.0
 20
0.0
 30
0.0
  3
*D14
  1

  0
LINE
  5
14D
330
14A
100
AcDbEntity
  8
0
100
AcDbLine
 10
416.0
 20
72.0
 30
0.0
 11
422.0
 21
72.0
 31
0.0
  0
LINE
  5
14E
330
14A
100
AcDbEntity
  8
0
100
AcDbLine
 10
416.0
 20
153.0
 30
0.0
 11
422.0
 21
153.0
 31
0.0
  0
INSERT
  5
14F
330
14A
100
AcDbEntity
  8
DIMENSIONS
100
AcDbBlockReference
  2
_CLOSEDFILLED
 10
422.0
 20
72.0
 30
0.0
 41
0.25
 42
0.25
 50
270.0
  0
INSERT
  5
151
330
14A
100
AcDbEntity
  8
DIMENSIONS
100
AcDbBlockReference
  2
_CLOSEDFILLED
 10
422.0
 20
153.0
 30
0.0
 41
0.25
 42
0.25
 50
90.0
  0
LINE
  5
153
330
14A
100
AcDbEntity
  8
0
100
AcDbLine
 10
422.0
 20
72.25
 30
0.0
 11
422.0
 21
110.5
 31
0.0
  0
LINE
  5
154
330
14A
100
AcDbEntity
  8
0
100
AcDbLine
 10
422.0
 20
114.5
 30
0.0
 11
422.0
 21
152.75
 31
0.0
  0
MTEXT
  5
155
330
14A
100
AcDbEntity
  8
DIMENSIONS
100
AcDbMText
 10
422.0
 20
112.5
 30
0.0
 40
2.0
 71
5
  1
81
 50
90.0
  0
POINT
  5
156
330
14A
100
AcDbEntity
  8
Defpoints
100
AcDbPoint
 10
422.0
 20
72.0
 30
0.0
  0
POINT
  5
157
330
14A
100
AcDbEntity
  8
Defpoints
100
AcDbPoint
 10
416.0
 20
72.0
 30
0.0
  0
POINT
  5
158
330
14A
100
AcDbEntity
  8
Defpoints
100
AcDbPoint
 10
416.0
 20
153.0
 30
0.0
  0
ENDBLK
  5
14C
330
14A
100
AcDbEntity
  8
0
100
AcDbBlockEnd
  0
BLOCK
  5
15F
330
15E
100
AcDbEntity
  8
0
100
AcDbBlockBegin
  2
*D15
 70
1
 10
0.0
 20
0.0
 30
0.0
  3
*D15
  1

  0
LINE
  5
161
330
15E
100
AcDbEntity
  8
0
100
AcDbLine
 10
98.0
 20
202.0
 30
0.0
 11
98.0
 21
196.0
 31
0.0
  0
LINE
  5
162
330
15E
100
AcDbEntity
  8
0
100
AcDbLine
 10
138.0
 20
202.0
 30
0.0
 11
138.0
 21
196.0
 31
0.0
  0
INSERT
  5
163
330
15E
100
AcDbEntity
  8
DIMENSIONS
100
AcDbBlockReference
  2
_CLOSEDFILLED
 10
98.0
 20
196.0
 30
0.0
 41
0.25
 42
0.25
 50
180.0
  0
INSERT
  5
165
330
15E
100
AcDbEntity
  8
DIMENSIONS
100
AcDbBlockReference
  2
_CLOSEDFILLED
 10
138.0
 20
196.0
 30
0.0
 41
0.25
 42
0.25
  0
LINE
  5
167
330
15E
100
AcDbEntity
  8
0
100
AcDbLine
 10
98.25
 20
196.0
 30
0.0
 11
116.0
 21
196.0
 31
0.0
  0
LINE
  5
168
330
15E
100
AcDbEntity
  8
0
100
AcDbLine
 10
120.0
 20
196.0
 30
0.0
 11
137.75
 21
196.0
 31
0.0
  0
MTEXT
  5
169
330
15E
100
AcDbEntity
  8
DIMENSIONS
100
AcDbMText
 10
118.0
 20
196.0
 30
0.0
 40
2.0
 71
5
  1
40
  0
POINT
  5
16A
330
15E
100
AcDbEntity
  8
Defpoints
100
AcDbPoint
 10
98.0
 20
196.0
 30
0.0
  0
POINT
  5
16B
330
15E
100
AcDbEntity
  8
Defpoints
100
AcDbPoint
 10
98.0
 20
202.0
 30
0.0
  0
POINT
  5
16C
330
15E
100
AcDbEntity
  8
Defpoints
100
AcDbPoint
 10
138.0
 20
202.0
 30
0.0
  0
ENDBLK
  5
160
330
15E
100
AcDbEntity
  8
0
100
AcDbBlockEnd
  0
BLOCK
  5
16F
330
16E
100
AcDbEntity
  8
0
100
AcDbBlockBegin
  2
*D16
 70
1
 10
0.0
 20
0.0
 30
0.0
  3
*D16
  1

  0
LINE
  5
171
330
16E
100
AcDbEntity
  8
0
100
AcDbLine
 10
138.0
 20
202.0
 30
0.0
 11
144.0
 21
202.0
 31
0.0
  0
LINE
  5
172
330
16E
100
AcDbEntity
  8
0
100
AcDbLine
 10
138.0
 20
261.0
 30
0.0
 11
144.0
 21
261.0
 31
0.0
  0
INSERT
  5
173
330
16E
100
AcDbEntity
  8
DIMENSIONS
100
AcDbBlockReference
  2
_CLOSEDFILLED
 10
144.0
 20
202.0
 30
0.0
 41
0.25
 42
0.25
 50
270.0
  0
INSERT
  5
175
330
16E
100
AcDbEntity
  8
DIMENSIONS
100
AcDbBlockReference
  2
_CLOSEDFILLED
 10
144.0
 20
261.0
 30
0.0
 41
0.25
 42
0.25
 50
90.0
  0
LINE
  5
177
330
16E
100
AcDbEntity
  8
0
100
AcDbLine
 10
144.0
 20
202.25
 30
0.0
 11
144.0
 21
229.5
 31
0.0
  0
LINE
  5
178
330
16E
100
AcDbEntity
  8
0
100
AcDbLine
 10
144.0
 20
233.5
 30
0.0
 11
144.0
 21
260.75
 31
0.0
  0
MTEXT
  5
179
330
16E
100
AcDbEntity
  8
DIMENSIONS
100
AcDbMText
 10
144.0
 20
231.5
 30
0.0
 40
2.0
 71
5
  1
59
 50
90.0
  0
POINT
  5
17A
330
16E
100
AcDbEntity
  8
Defpoints
100
AcDbPoint
 10
144.0
 20
202.0
 30
0.0
  0
POINT
  5
17B
330
16E
100
AcDbEntity
  8
Defpoints
100
AcDbPoint
 10
138.0
 20
202.0
 30
0.0
  0
POINT
  5
17C
330
16E
100
AcDbEntity
  8
Defpoints
100
AcDbPoint
 10
138.0
 20
261.0
 30
0.0
  0
ENDBLK
  5
170
330
16E
100
AcDbEntity
  8
0
100
AcDbBlockEnd
  0
BLOCK
  5
183
330
182
100
AcDbEntity
  8
0
100
AcDbBlockBegin
  2
*D17
 70
1
 10
0.0
 20
0.0
 30
0.0
  3
*D17
  1

  0
LINE
  5
185
330
182
100
AcDbEntity
  8
0
100
AcDbLine
 10
166.0
 20
232.0
 30
0.0
 11
166.0
 21
226.0
 31
0.0
  0
LINE
  5
186
330
182
100
AcDbEntity
  8
0
100
AcDbLine
 10
196.0
 20
232.0
 30
0.0
 11
196.0
 21
226.0
 31
0.0
  0
INSERT
  5
187
330
182
100
AcDbEntity
  8
DIMENSIONS
100
AcDbBlockReference
  2
_CLOSEDFILLED
 10
166.0
 20
226.0
 30
0.0
 41
0.25
 42
0.25
 50
180.0
  0
INSERT
  5
189
330
182
100
AcDbEntity
  8
DIMENSIONS
100
AcDbBlockReference
  2
_CLOSEDFILLED
 10
196.0
 20
226.0
 30
0.0
 41
0.25
 42
0.25
  0
LINE
  5
18B
330
182
100
AcDbEntity
  8
0
100
AcDbLine
 10
166.25
 20
226.0
 30
0.0
 11
179.0
 21
226.0
 31
0.0
  0
LINE
  5
18C
330
182
100
AcDbEntity
  8
0
100
AcDbLine
 10
183.0
 20
226.0
 30
0.0
 11
195.75
 21
226.0
 31
0.0
  0
MTEXT
  5
18D
330
182
100
AcDbEntity
  8
DIMENSIONS
100
AcDbMText
 10
181.0
 20
226.0
 30
0.0
 40
2.0
 71
5
  1
30
  0
POINT
  5
18E
330
182
100
AcDbEntity
  8
Defpoints
100
AcDbPoint
 10
166.0
 20
226.0
 30
0.0
  0
POINT
  5
18F
330
182
100
AcDbEntity
  8
Defpoints
100
AcDbPoint
 10
166.0
 20
232.0
 30
0.0
  0
POINT
  5
190
330
182
100
AcDbEntity
  8
Defpoints
100
AcDbPoint
 10
196.0
 20
232.0
 30
0.0
  0
ENDBLK
  5
184
330
182
100
AcDbEntity
  8
0
100
AcDbBlockEnd
  0
BLOCK
  5
193
330
192
100
AcDbEntity
  8
0
100
AcDbBlockBegin
  2
*D18
 70
1
 10
0.0
 20
0.0
 30
0.0
  3
*D18
  1

  0
LINE
  5
195
330
192
100
AcDbEntity
  8
0
100
AcDbLine
 10
196.0
 20
232.0
 30
0.0
 11
202.0
 21
232.0
 31
0.0
  0
LINE
  5
196
330
192
100
AcDbEntity
  8
0
100
AcDbLine
 10
196.0
 20
257.0
 30
0.0
 11
202.0
 21
257.0
 31
0.0
  0
INSERT
  5
197
330
192
100
AcDbEntity
  8
DIMENSIONS
100
AcDbBlockReference
  2
_CLOSEDFILLED
 10
202.0
 20
232.0
 30
0.0
 41
0.25
 42
0.25
 50
270.0
  0
INSERT
  5
199
330
192
100
AcDbEntity
  8
DIMENSIONS
100
AcDbBlockReference
  2
_CLOSEDFILLED
 10
202.0
 20
257.0
 30
0.0
 41
0.25
 42
0.25
 50
90.0
  0
LINE
  5
19B
330
192
100
AcDbEntity
  8
0
100
AcDbLine
 10
202.0
 20
232.25
 30
0.0
 11
202.0
 21
242.5
 31
0.0
  0
LINE
  5
19C
330
192
100
AcDbEntity
  8
0
100
AcDbLine
 10
202.0
 20
246.5
 30
0.0
 11
202.0
 21
256.75
 31
0.0
  0
MTEXT
  5
19D
330
192
100
AcDbEntity
  8
DIMENSIONS
100
AcDbMText
 10
202.0
 20
244.5
 30
0.0
 40
2.0
 71
5
  1
25
 50
90.0
  0
POINT
  5
19E
330
192
100
AcDbEntity
  8
Defpoints
100
AcDbPoint
 10
202.0
 20
232.0
 30
0.0
  0
POINT
  5
19F
330
192
100
AcDbEntity
  8
Defpoints
100
AcDbPoint
 10
196.0
 20
232.0
 30
0.0
  0
POINT
  5
1A0
330
192
100
AcDbEntity
  8
Defpoints
100
AcDbPoint
 10
196.0
 20
257.0
 30
0.0
  0
ENDBLK
  5
194
330
192
100
AcDbEntity
  8
0
100
AcDbBlockEnd
  0
BLOCK
  5
1A7
330
1A6
100
AcDbEntity
  8
0
100
AcDbBlockBegin
  2
*D19
 70
1
 10
0.0
 20
0.0
 30
0.0
  3
*D19
  1

  0
LINE
  5
1A9
330
1A6
100
AcDbEntity
  8
0
100
AcDbLine
 10
80.0
 20
126.0
 30
0.0
 11
80.0
 21
120.0
 31
0.0
  0
LINE
  5
1AA
330
1A6
100
AcDbEntity
  8
0
100
AcDbLine
 10
105.0
 20
126.0
 30
0.0
 11
105.0
 21
120.0
 31
0.0
  0
INSERT
  5
1AB
330
1A6
100
AcDbEntity
  8
DIMENSIONS
100
AcDbBlockReference
  2
_CLOSEDFILLED
 10
80.0
 20
120.0
 30
0.0
 41
0.25
 42
0.25
 50
180.0
  0
INSERT
  5
1AD
330
1A6
100
AcDbEntity
  8
DIMENSIONS
100
AcDbBlockReference
  2
_CLOSEDFILLED
 10
105.0
 20
120.0
 30
0.0
 41
0.25
 42
0.25
  0
LINE
  5
1AF
330
1A6
100
AcDbEntity
  8
0
100
AcDbLine
 10
80.25
 20
120.0
 30
0.0
 11
90.5
 21
120.0
 31
0.0
  0
LINE
  5
1B0
330
1A6
100
AcDbEntity
  8
0
100
AcDbLine
 10
94.5
 20
120.0
 30
0.0
 11
104.75
 21
120.0
 31
0.0
  0
MTEXT
  5
1B1
330
1A6
100
AcDbEntity
  8
DIMENSIONS
100
AcDbMText
 10
92.5
 20
120.0
 30
0.0
 40
2.0
 71
5
  1
25
  0
POINT
  5
1B2
330
1A6
100
AcDbEntity
  8
Defpoints
100
AcDbPoint
 10
80.0
 20
120.0
 30
0.0
  0
POINT
  5
1B3
330
1A6
100
AcDbEntity
  8
Defpoints
100
AcDbPoint
 10
80.0
 20
126.0
 30
0.0
  0
POINT
  5
1B4
330
1A6
100
AcDbEntity
  8
Defpoints
100
AcDbPoint
 10
105.0
 20
126.0
 30
0.0
  0
ENDBLK
  5
1A8
330
1A6
100
AcDbEntity
  8
0
100
AcDbBlockEnd
  0
BLOCK
  5
1B7
330
1B6
100
AcDbEntity
  8
0
100
AcDbBlockBegin
  2
*D20
 70
1
 10
0.0
 20
0.0
 30
0.0
  3
*D20
  1

  0
LINE
  5
1B9
330
1B6
100
AcDbEntity
  8
0
100
AcDbLine
 10
105.0
 20
126.0
 30
0.0
 11
111.0
 21
126.0
 31
0.0
  0
LINE
  5
1BA
330
1B6
100
AcDbEntity
  8
0
100
AcDbLine
 10
105.0
 20
138.0
 30
0.0
 11
111.0
 21
138.0
 31
0.0
  0
INSERT
  5
1BB
330
1B6
100
AcDbEntity
  8
DIMENSIONS
100
AcDbBlockReference
  2
_CLOSEDFILLED
 10
111.0
 20
126.0
 30
0.0
 41
0.25
 42
0.25
 50
270.0
  0
INSERT
  5
1BD
330
1B6
100
AcDbEntity
  8
DIMENSIONS
100
AcDbBlockReference
  2
_CLOSEDFILLED
 10
111.0
 20
138.0
 30
0.0
 41
0.25
 42
0.25
 50
90.0
  0
LINE
  5
1BF
330
1B6
100
AcDbEntity
  8
0
100
AcDbLine
 10
111.0
 20
126.25
 30
0.0
 11
111.0
 21
130.0
 31
0.0
  0
LINE
  5
1C0
330
1B6
100
AcDbEntity
  8
0
100
AcDbLine
 10
111.0
 20
134.0
 30
0.0
 11
111.0
 21
137.75
 31
0.0
  0
MTEXT
  5
1C1
330
1B6
100
AcDbEntity
  8
DIMENSIONS
100
AcDbMText
 10
111.0
 20
132.0
 30
0.0
 40
2.0
 71
5
  1
12
 50
90.0
  0
POINT
  5
1C2
330
1B6
100
AcDbEntity
  8
Defpoints
100
AcDbPoint
 10
111.0
 20
126.0
 30
0.0
  0
POINT
  5
1C3
330
1B6
100
AcDbEntity
  8
Defpoints
100
AcDbPoint
 10
105.0
 20
126.0
 30
0.0
  0
POINT
  5
1C4
330
1B6
100
AcDbEntity
  8
Defpoints
100
AcDbPoint
 10
105.0
 20
138.0
 30
0.0
  0
ENDBLK
  5
1B8
330
1B6
100
AcDbEntity
  8
0
100
AcDbBlockEnd
  0
ENDSEC
  0
SECTION
  2
ENTITIES
  0
LWPOLYLINE
  5
41
330
17
100
AcDbEntity
  8
SITE_BOUNDARY
100
AcDbPolyline
 90
6
 70
1
 10
171.97789813473028
 20
39.07512818426139
 10
517.4825052153666
 20
0.5865905537700428
 10
519.6698121499751
 20
257.4609223078283
 10
209.16186978786192
 20
296.59838102169255
 10
-2.619102797206946
 20
297.6892217095203
 10
-2.619102797206946
 20
37.75304631717887
  0
TEXT
  5
42
330
17
100
AcDbEntity
  8
LABELS
100
AcDbText
 10
257.7961642902149
 20
313.0996920363019
 30
0.0
 40
3.0
  1
Site (Polygon Boundary)
 72
1
 11
257.7961642902149
 21
313.0996920363019
 31
0.0
100
AcDbText
 73
2
  0
LWPOLYLINE
  5
43
330
17
100
AcDbEntity
  8
ROAD
100
AcDbPolyline
 90
5
 70
1
 10
148.0
 20
44.0
 10
326.0
 20
44.0
 10
326.0
 20
218.0
 10
152.0
 20
218.0
 10
152.0
 20
40.0
  0
LWPOLYLINE
  5
44
330
17
100
AcDbEntity
  8
ROAD
100
AcDbPolyline
 90
5
 70
1
 10
148.0
 20
36.0
 10
334.0
 20
36.0
 10
334.0
 20
226.0
 10
144.0
 20
226.0
 10
144.0
 20
40.0
  0
LWPOLYLINE
  5
45
330
17
100
AcDbEntity
  8
ROAD
100
AcDbPolyline
 90
5
 70
0
 10
230.0
 20
278.8544910932476
 10
244.58465465962888
 20
278.8544910932476
 10
258.0
 20
278.8544910932476
 10
310.58375916439974
 20
278.8544910932476
 10
310.58375916439974
 20
288.3502145890635
  0
LWPOLYLINE
  5
46
330
17
100
AcDbEntity
  8
ROAD
100
AcDbPolyline
 90
5
 70
0
 10
230.0
 20
270.8544910932476
 10
244.58465465962888
 20
270.8544910932476
 10
258.0
 20
270.8544910932476
 10
318.58375916439974
 20
270.8544910932476
 10
318.58375916439974
 20
288.3502145890635
  0
LWPOLYLINE
  5
47
330
17
100
AcDbEntity
  8
ROAD
100
AcDbPolyline
 90
3
 70
0
 10
144.0
 20
222.0
 10
144.0
 20
278.8544910932476
 10
230.0
 20
278.8544910932476
  0
LWPOLYLINE
  5
48
330
17
100
AcDbEntity
  8
ROAD
100
AcDbPolyline
 90
3
 70
0
 10
152.0
 20
222.0
 10
152.0
 20
270.8544910932476
 10
230.0
 20
270.8544910932476
  0
LWPOLYLINE
  5
49
330
17
100
AcDbEntity
  8
ROAD
100
AcDbPolyline
 90
3
 70
0
 10
516.0
 20
214.0
 10
516.0
 20
172.0
 10
332.0
 20
172.0
  0
LWPOLYLINE
  5
4A
330
17
100
AcDbEntity
  8
ROAD
100
AcDbPolyline
 90
3
 70
0
 10
508.0
 20
214.0
 10
508.0
 20
180.0
 10
332.0
 20
180.0
  0
LWPOLYLINE
  5
4B
330
17
100
AcDbEntity
  8
ROAD
100
AcDbPolyline
 90
4
 70
0
 10
508.0
 20
214.0
 10
508.0
 20
244.0
 10
334.0
 20
244.0
 10
334.0
 20
222.0
  0
LWPOLYLINE
  5
4C
330
17
100
AcDbEntity
  8
ROAD
100
AcDbPolyline
 90
4
 70
0
 10
516.0
 20
214.0
 10
516.0
 20
252.0
 10
326.0
 20
252.0
 10
326.0
 20
222.0
  0
LWPOLYLINE
  5
4D
330
17
100
AcDbEntity
  8
ROAD
100
AcDbPolyline
 90
2
 70
0
 10
2.0
 20
132.0
 10
2.0
 20
37.457725681318664
  0
LWPOLYLINE
  5
4E
330
17
100
AcDbEntity
  8
ROAD
100
AcDbPolyline
 90
2
 70
0
 10
-6.0
 20
132.0
 10
-6.0
 20
37.457725681318664
  0
LWPOLYLINE
  5
4F
330
17
100
AcDbEntity
  8
ROAD
100
AcDbPolyline
 90
5
 70
0
 10
-6.0
 20
132.0
 10
-6.0
 20
248.0
 10
84.0
 20
248.0
 10
84.0
 20
278.0
 10
148.0
 20
278.0
  0
LWPOLYLINE
  5
50
330
17
100
AcDbEntity
  8
ROAD
100
AcDbPolyline
 90
5
 70
0
 10
2.0
 20
132.0
 10
2.0
 20
240.0
 10
92.0
 20
240.0
 10
92.0
 20
270.0
 10
148.0
 20
270.0
  0
LWPOLYLINE
  5
51
330
17
100
AcDbEntity
  8
ROAD
100
AcDbPolyline
 90
2
 70
0
 10
422.0
 20
112.0
 10
422.0
 20
176.0
  0
LWPOLYLINE
  5
52
330
17
100
AcDbEntity
  8
ROAD
100
AcDbPolyline
 90
2
 70
0
 10
430.0
 20
112.0
 10
430.0
 20
176.0
  0
LWPOLYLINE
  5
53
330
17
100
AcDbEntity
  8
ROAD
100
AcDbPolyline
 90
5
 70
0
 10
430.0
 20
112.0
 10
430.0
 20
58.0
 10
344.0
 20
58.0
 10
344.0
 20
60.0
 10
330.0
 20
60.0
  0
LWPOLYLINE
  5
54
330
17
100
AcDbEntity
  8
ROAD
100
AcDbPolyline
 90
5
 70
0
 10
422.0
 20
112.0
 10
422.0
 20
66.0
 10
352.0
 20
66.0
 10
352.0
 20
68.0
 10
330.0
 20
68.0
  0
LWPOLYLINE
  5
55
330
17
100
AcDbEntity
  8
ROAD
100
AcDbPolyline
 90
3
 70
0
 10
84.0
 20
232.0
 10
84.0
 20
278.0
 10
148.0
 20
278.0
  0
LWPOLYLINE
  5
56
330
17
100
AcDbEntity
  8
ROAD
100
AcDbPolyline
 90
3
 70
0
 10
92.0
 20
232.0
 10
92.0
 20
270.0
 10
148.0
 20
270.0
  0
LWPOLYLINE
  5
57
330
17
100
AcDbEntity
  8
ROAD
100
AcDbPolyline
 90
2
 70
0
 10
84.0
 20
232.0
 10
84.0
 20
244.0
  0
LWPOLYLINE
  5
58
330
17
100
AcDbEntity
  8
ROAD
100
AcDbPolyline
 90
2
 70
0
 10
92.0
 20
232.0
 10
92.0
 20
244.0
  0
LWPOLYLINE
  5
59
330
17
100
AcDbEntity
  8
GATE_HOUSE
100
AcDbPolyline
 90
4
 70
1
 10
238.0
 20
254.0
 10
250.0
 20
254.0
 10
250.0
 20
266.00000000000006
 10
238.0
 20
266.00000000000006
  0
LINE
  5
5A
330
17
100
AcDbEntity
  8
GATE_HOUSE
100
AcDbLine
 10
243.04
 20
260.0
 30
0.0
 11
244.96
 21
260.0
 31
0.0
  0
LINE
  5
5B
330
17
100
AcDbEntity
  8
GATE_HOUSE
100
AcDbLine
 10
244.0
 20
259.04
 30
0.0
 11
244.0
 21
260.96
 31
0.0
  0
TEXT
  5
5C
330
17
100
AcDbEntity
  8
LABELS
100
AcDbText
 10
244.0
 20
260.0
 30
0.0
 40
1.5
  1
Gate House
 72
1
 11
244.0
 21
260.0
 31
0.0
100
AcDbText
 73
2
  0
DIMENSION
  5
5D
330
17
100
AcDbEntity
  8
DIMENSIONS
100
AcDbDimension
280
0
  2
*D1
  3
Standard
 10
238.0
 20
248.0
 30
0.0
 11
244.0
 21
248.0
 31
0.0
 70
32
 71
5
  1
<>
100
AcDbAlignedDimension
 13
238.0
 23
254.0
 33
0.0
 14
250.0
 24
254.0
 34
0.0
 50
0.0
100
AcDbRotatedDimension
1001
ACAD
1000
DSTYLE
1002
{
1070
140
1040
2.0
1002
}
  0
DIMENSION
  5
71
330
17
100
AcDbEntity
  8
DIMENSIONS
100
AcDbDimension
280
0
  2
*D2
  3
Standard
 10
256.0
 20
254.0
 30
0.0
 11
256.0
 21
260.0
 31
0.0
 70
32
 71
5
  1
<>
100
AcDbAlignedDimension
 13
250.0
 23
254.0
 33
0.0
 14
250.0
 24
266.00000000000006
 34
0.0
 50
90.0
100
AcDbRotatedDimension
1001
ACAD
1000
DSTYLE
1002
{
1070
140
1040
2.0
1002
}
  0
LWPOLYLINE
  5
81
330
17
100
AcDbEntity
  8
GIS
100
AcDbPolyline
 90
4
 70
1
 10
392.0
 20
188.0
 10
502.0
 20
188.0
 10
502.0
 20
239.0
 10
392.0
 20
239.0
  0
LINE
  5
82
330
17
100
AcDbEntity
  8
GIS
100
AcDbLine
 10
442.92
 20
213.5
 30
0.0
 11
451.08
 21
213.5
 31
0.0
  0
LINE
  5
83
330
17
100
AcDbEntity
  8
GIS
100
AcDbLine
 10
447.0
 20
209.42
 30
0.0
 11
447.0
 21
217.58
 31
0.0
  0
TEXT
  5
84
330
17
100
AcDbEntity
  8
LABELS
100
AcDbText
 10
447.0
 20
213.5
 30
0.0
 40
5.1000000000000005
  1
GIS
 72
1
 11
447.0
 21
213.5
 31
0.0
100
AcDbText
 73
2
  0
DIMENSION
  5
85
330
17
100
AcDbEntity
  8
DIMENSIONS
100
AcDbDimension
280
0
  2
*D3
  3
Standard
 10
392.0
 20
182.0
 30
0.0
 11
447.0
 21
182.0
 31
0.0
 70
32
 71
5
  1
<>
100
AcDbAlignedDimension
 13
392.0
 23
188.0
 33
0.0
 14
502.0
 24
188.0
 34
0.0
 50
0.0
100
AcDbRotatedDimension
1001
ACAD
1000
DSTYLE
1002
{
1070
140
1040
2.0
1002
}
  0
DIMENSION
  5
95
330
17
100
AcDbEntity
  8
DIMENSIONS
100
AcDbDimension
280
0
  2
*D4
  3
Standard
 10
508.0
 20
188.0
 30
0.0
 11
508.0
 21
213.5
 31
0.0
 70
32
 71
5
  1
<>
100
AcDbAlignedDimension
 13
502.0
 23
188.0
 33
0.0
 14
502.0
 24
239.0
 34
0.0
 50
90.0
100
AcDbRotatedDimension
1001
ACAD
1000
DSTYLE
1002
{
1070
140
1040
2.0
1002
}
  0
LWPOLYLINE
  5
A5
330
17
100
AcDbEntity
  8
WATER
100
AcDbPolyline
 90
4
 70
1
 10
82.0
 20
48.0
 10
119.0
 20
48.0
 10
119.0
 20
85.0
 10
82.0
 20
85.0
  0
LINE
  5
A6
330
17
100
AcDbEntity
  8
WATER
100
AcDbLine
 10
97.54
 20
66.5
 30
0.0
 11
103.46
 21
66.5
 31
0.0
  0
LINE
  5
A7
330
17
100
AcDbEntity
  8
WATER
100
AcDbLine
 10
100.5
 20
63.54
 30
0.0
 11
100.5
 21
69.46
 31
0.0
  0
TEXT
  5
A8
330
17
100
AcDbEntity
  8
LABELS
100
AcDbText
 10
100.5
 20
66.5
 30
0.0
 40
3.7
  1
RAW Water Tank
 72
1
 11
100.5
 21
66.5
 31
0.0
100
AcDbText
 73
2
  0
DIMENSION
  5
A9
330
17
100
AcDbEntity
  8
DIMENSIONS
100
AcDbDimension
280
0
  2
*D5
  3
Standard
 10
82.0
 20
42.0
 30
0.0
 11
100.5
 21
42.0
 31
0.0
 70
32
 71
5
  1
<>
100
AcDbAlignedDimension
 13
82.0
 23
48.0
 33
0.0
 14
119.0
 24
48.0
 34
0.0
 50
0.0
100
AcDbRotatedDimension
1001
ACAD
1000
DSTYLE
1002
{
1070
140
1040
2.0
1002
}
  0
DIMENSION
  5
B9
330
17
100
AcDbEntity
  8
DIMENSIONS
100
AcDbDimension
280
0
  2
*D6
  3
Standard
 10
125.0
 20
48.0
 30
0.0
 11
125.0
 21
66.5
 31
0.0
 70
32
 71
5
  1
<>
100
AcDbAlignedDimension
 13
119.0
 23
48.0
 33
0.0
 14
119.0
 24
85.0
 34
0.0
 50
90.0
100
AcDbRotatedDimension
1001
ACAD
1000
DSTYLE
1002
{
1070
140
1040
2.0
1002
}
  0
LWPOLYLINE
  5
C9
330
17
100
AcDbEntity
  8
POWER_BLOCK
100
AcDbPolyline
 90
4
 70
1
 10
164.0
 20
56.0
 10
314.0
 20
56.0
 10
314.0
 20
206.0
 10
164.0
 20
206.0
  0
LINE
  5
CA
330
17
100
AcDbEntity
  8
POWER_BLOCK
100
AcDbLine
 10
227.0
 20
131.0
 30
0.0
 11
251.0
 21
131.0
 31
0.0
  0
LINE
  5
CB
330
17
100
AcDbEntity
  8
POWER_BLOCK
100
AcDbLine
 10
239.0
 20
119.0
 30
0.0
 11
239.0
 21
143.0
 31
0.0
  0
TEXT
  5
CC
330
17
100
AcDbEntity
  8
LABELS
100
AcDbText
 10
239.0
 20
131.0
 30
0.0
 40
15.0
  1
Power Block
 72
1
 11
239.0
 21
131.0
 31
0.0
100
AcDbText
 73
2
  0
DIMENSION
  5
CD
330
17
100
AcDbEntity
  8
DIMENSIONS
100
AcDbDimension
280
0
  2
*D7
  3
Standard
 10
164.0
 20
50.0
 30
0.0
 11
239.0
 21
50.0
 31
0.0
 70
32
 71
5
  1
<>
100
AcDbAlignedDimension
 13
164.0
 23
56.0
 33
0.0
 14
314.0
 24
56.0
 34
0.0
 50
0.0
100
AcDbRotatedDimension
1001
ACAD
1000
DSTYLE
1002
{
1070
140
1040
2.0
1002
}
  0
DIMENSION
  5
DD
330
17
100
AcDbEntity
  8
DIMENSIONS
100
AcDbDimension
280
0
  2
*D8
  3
Standard
 10
320.0
 20
56.0
 30
0.0
 11
320.0
 21
131.0
 31
0.0
 70
32
 71
5
  1
<>
100
AcDbAlignedDimension
 13
314.0
 23
56.0
 33
0.0
 14
314.0
 24
206.0
 34
0.0
 50
90.0
100
AcDbRotatedDimension
1001
ACAD
1000
DSTYLE
1002
{
1070
140
1040
2.0
1002
}
  0
LWPOLYLINE
  5
ED
330
17
100
AcDbEntity
  8
FLARE
100
AcDbPolyline
 90
4
 70
1
 10
20.0
 20
256.0
 10
60.0
 20
256.0
 10
60.0
 20
296.0
 10
20.0
 20
296.0
  0
LINE
  5
EE
330
17
100
AcDbEntity
  8
FLARE
100
AcDbLine
 10
36.8
 20
276.0
 30
0.0
 11
43.2
 21
276.0
 31
0.0
  0
LINE
  5
EF
330
17
100
AcDbEntity
  8
FLARE
100
AcDbLine
 10
40.0
 20
272.8
 30
0.0
 11
40.0
 21
279.2
 31
0.0
  0
TEXT
  5
F0
330
17
100
AcDbEntity
  8
LABELS
100
AcDbText
 10
40.0
 20
276.0
 30
0.0
 40
4.0
  1
Flare
 72
1
 11
40.0
 21
276.0
 31
0.0
100
AcDbText
 73
2
  0
DIMENSION
  5
F1
330
17
100
AcDbEntity
  8
DIMENSIONS
100
AcDbDimension
280
0
  2
*D9
  3
Standard
 10
20.0
 20
250.0
 30
0.0
 11
40.0
 21
250.0
 31
0.0
 70
32
 71
5
  1
<>
100
AcDbAlignedDimension
 13
20.0
 23
256.0
 33
0.0
 14
60.0
 24
256.0
 34
0.0
 50
0.0
100
AcDbRotatedDimension
1001
ACAD
1000
DSTYLE
1002
{
1070
140
1040
2.0
1002
}
  0
DIMENSION
  5
101
330
17
100
AcDbEntity
  8
DIMENSIONS
100
AcDbDimension
280
0
  2
*D10
  3
Standard
 10
66.0
 20
256.0
 30
0.0
 11
66.0
 21
276.0
 31
0.0
 70
32
 71
5
  1
<>
100
AcDbAlignedDimension
 13
60.0
 23
256.0
 33
0.0
 14
60.0
 24
296.0
 34
0.0
 50
90.0
100
AcDbRotatedDimension
1001
ACAD
1000
DSTYLE
1002
{
1070
140
1040
2.0
1002
}
  0
LWPOLYLINE
  5
111
330
17
100
AcDbEntity
  8
COOLING_TOWER
100
AcDbPolyline
 90
4
 70
1
 10
8.0
 20
40.0
 10
48.0
 20
40.0
 10
48.0
 20
223.0
 10
8.0
 20
223.0
  0
LINE
  5
112
330
17
100
AcDbEntity
  8
COOLING_TOWER
100
AcDbLine
 10
24.8
 20
131.5
 30
0.0
 11
31.2
 21
131.5
 31
0.0
  0
LINE
  5
113
330
17
100
AcDbEntity
  8
COOLING_TOWER
100
AcDbLine
 10
28.0
 20
128.3
 30
0.0
 11
28.0
 21
134.7
 31
0.0
  0
TEXT
  5
114
330
17
100
AcDbEntity
  8
LABELS
100
AcDbText
 10
28.0
 20
131.5
 30
0.0
 40
4.0
  1
Cooling Tower
 72
1
 11
28.0
 21
131.5
 31
0.0
100
AcDbText
 73
2
  0
DIMENSION
  5
115
330
17
100
AcDbEntity
  8
DIMENSIONS
100
AcDbDimension
280
0
  2
*D11
  3
Standard
 10
8.0
 20
34.0
 30
0.0
 11
28.0
 21
34.0
 31
0.0
 70
32
 71
5
  1
<>
100
AcDbAlignedDimension
 13
8.0
 23
40.0
 33
0.0
 14
48.0
 24
40.0
 34
0.0
 50
0.0
100
AcDbRotatedDimension
1001
ACAD
1000
DSTYLE
1002
{
1070
140
1040
2.0
1002
}
  0
DIMENSION
  5
125
330
17
100
AcDbEntity
  8
DIMENSIONS
100
AcDbDimension
280
0
  2
*D12
  3
Standard
 10
54.0
 20
40.0
 30
0.0
 11
54.0
 21
131.5
 31
0.0
 70
32
 71
5
  1
<>
100
AcDbAlignedDimension
 13
48.0
 23
40.0
 33
0.0
 14
48.0
 24
223.0
 34
0.0
 50
90.0
100
AcDbRotatedDimension
1001
ACAD
1000
DSTYLE
1002
{
1070
140
1040
2.0
1002
}
  0
LWPOLYLINE
  5
135
330
17
100
AcDbEntity
  8
WT_WWT
100
AcDbPolyline
 90
4
 70
1
 10
360.0
 20
72.0
 10
416.0
 20
72.0
 10
416.0
 20
153.0
 10
360.0
 20
153.0
  0
LINE
  5
136
330
17
100
AcDbEntity
  8
WT_WWT
100
AcDbLine
 10
383.52
 20
112.5
 30
0.0
 11
392.48
 21
112.5
 31
0.0
  0
LINE
  5
137
330
17
100
AcDbEntity
  8
WT_WWT
100
AcDbLine
 10
388.0
 20
108.02
 30
0.0
 11
388.0
 21
116.98
 31
0.0
  0
TEXT
  5
138
330
17
100
AcDbEntity
  8
LABELS
100
AcDbText
 10
388.0
 20
112.5
 30
0.0
 40
5.6000000000000005
  1
WT/WWT
 72
1
 11
388.0
 21
112.5
 31
0.0
100
AcDbText
 73
2
  0
DIMENSION
  5
139
330
17
100
AcDbEntity
  8
DIMENSIONS
100
AcDbDimension
280
0
  2
*D13
  3
Standard
 10
360.0
 20
66.0
 30
0.0
 11
388.0
 21
66.0
 31
0.0
 70
32
 71
5
  1
<>
100
AcDbAlignedDimension
 13
360.0
 23
72.0
 33
0.0
 14
416.0
 24
72.0
 34
0.0
 50
0.0
100
AcDbRotatedDimension
1001
ACAD
1000
DSTYLE
1002
{
1070
140
1040
2.0
1002
}
  0
DIMENSION
  5
149
330
17
100
AcDbEntity
  8
DIMENSIONS
100
AcDbDimension
280
0
  2
*D14
  3
Standard
 10
422.0
 20
72.0
 30
0.0
 11
422.0
 21
112.5
 31
0.0
 70
32
 71
5
  1
<>
100
AcDbAlignedDimension
 13
416.0
 23
72.0
 33
0.0
 14
416.0
 24
153.0
 34
0.0
 50
90.0
100
AcDbRotatedDimension
1001
ACAD
1000
DSTYLE
1002
{
1070
140
1040
2.0
1002
}
  0
LWPOLYLINE
  5
159
330
17
100
AcDbEntity
  8
WAREHOUSE
100
AcDbPolyline
 90
4
 70
1
 10
98.0
 20
202.0
 10
138.0
 20
202.0
 10
138.0
 20
261.0
 10
98.0
 20
261.0
  0
LINE
  5
15A
330
17
100
AcDbEntity
  8
WAREHOUSE
100
AcDbLine
 10
114.8
 20
231.5
 30
0.0
 11
121.2
 21
231.5
 31
0.0
  0
LINE
  5
15B
330
17
100
AcDbEntity
  8
WAREHOUSE
100
AcDbLine
 10
118.0
 20
228.3
 30
0.0
 11
118.0
 21
234.7
 31
0.0
  0
TEXT
  5
15C
330
17
100
AcDbEntity
  8
LABELS
100
AcDbText
 10
118.0
 20
231.5
 30
0.0
 40
4.0
  1
Warehouse
 72
1
 11
118.0
 21
231.5
 31
0.0
100
AcDbText
 73
2
  0
DIMENSION
  5
15D
330
17
100
AcDbEntity
  8
DIMENSIONS
100
AcDbDimension
280
0
  2
*D15
  3
Standard
 10
98.0
 20
196.0
 30
0.0
 11
118.0
 21
196.0
 31
0.0
 70
32
 71
5
  1
<>
100
AcDbAlignedDimension
 13
98.0
 23
202.0
 33
0.0
 14
138.0
 24
202.0
 34
0.0
 50
0.0
100
AcDbRotatedDimension
1001
ACAD
1000
DSTYLE
1002
{
1070
140
1040
2.0
1002
}
  0
DIMENSION
  5
16D
330
17
100
AcDbEntity
  8
DIMENSIONS
100
AcDbDimension
280
0
  2
*D16
  3
Standard
 10
144.0
 20
202.0
 30
0.0
 11
144.0
 21
231.5
 31
0.0
 70
32
 71
5
  1
<>
100
AcDbAlignedDimension
 13
138.0
 23
202.0
 33
0.0
 14
138.0
 24
261.0
 34
0.0
 50
90.0
100
AcDbRotatedDimension
1001
ACAD
1000
DSTYLE
1002
{
1070
140
1040
2.0
1002
}
  0
LWPOLYLINE
  5
17D
330
17
100
AcDbEntity
  8
ADMIN_BUILDING
100
AcDbPolyline
 90
4
 70
1
 10
166.0
 20
232.0
 10
196.0
 20
232.0
 10
196.0
 20
257.0
 10
166.0
 20
257.0
  0
LINE
  5
17E
330
17
100
AcDbEntity
  8
ADMIN_BUILDING
100
AcDbLine
 10
179.0
 20
244.5
 30
0.0
 11
183.0
 21
244.5
 31
0.0
  0
LINE
  5
17F
330
17
100
AcDbEntity
  8
ADMIN_BUILDING
100
AcDbLine
 10
181.0
 20
242.5
 30
0.0
 11
181.0
 21
246.5
 31
0.0
  0
TEXT
  5
180
330
17
100
AcDbEntity
  8
LABELS
100
AcDbText
 10
181.0
 20
244.5
 30
0.0
 40
2.5
  1
Admin Building
 72
1
 11
181.0
 21
244.5
 31
0.0
100
AcDbText
 73
2
  0
DIMENSION
  5
181
330
17
100
AcDbEntity
  8
DIMENSIONS
100
AcDbDimension
280
0
  2
*D17
  3
Standard
 10
166.0
 20
226.0
 30
0.0
 11
181.0
 21
226.0
 31
0.0
 70
32
 71
5
  1
<>
100
AcDbAlignedDimension
 13
166.0
 23
232.0
 33
0.0
 14
196.0
 24
232.0
 34
0.0
 50
0.0
100
AcDbRotatedDimension
1001
ACAD
1000
DSTYLE
1002
{
1070
140
1040
2.0
1002
}
  0
DIMENSION
  5
191
330
17
100
AcDbEntity
  8
DIMENSIONS
100
AcDbDimension
280
0
  2
*D18
  3
Standard
 10
202.0
 20
232.0
 30
0.0
 11
202.0
 21
244.5
 31
0.0
 70
32
 71
5
  1
<>
100
AcDbAlignedDimension
 13
196.0
 23
232.0
 33
0.0
 14
196.0
 24
257.0
 34
0.0
 50
90.0
100
AcDbRotatedDimension
1001
ACAD
1000
DSTYLE
1002
{
1070
140
1040
2.0
1002
}
  0
LWPOLYLINE
  5
1A1
330
17
100
AcDbEntity
  8
WATER
100
AcDbPolyline
 90
4
 70
1
 10
80.0
 20
126.0
 10
105.0
 20
126.0
 10
105.0
 20
138.0
 10
80.0
 20
138.0
  0
LINE
  5
1A2
330
17
100
AcDbEntity
  8
WATER
100
AcDbLine
 10
91.54
 20
132.0
 30
0.0
 11
93.46
 21
132.0
 31
0.0
  0
LINE
  5
1A3
330
17
100
AcDbEntity
  8
WATER
100
AcDbLine
 10
92.5
 20
131.04
 30
0.0
 11
92.5
 21
132.96
 31
0.0
  0
TEXT
  5
1A4
330
17
100
AcDbEntity
  8
LABELS
100
AcDbText
 10
92.5
 20
132.0
 30
0.0
 40
1.5
  1
Demi Water Tank
 72
1
 11
92.5
 21
132.0
 31
0.0
100
AcDbText
 73
2
  0
DIMENSION
  5
1A5
330
17
100
AcDbEntity
  8
DIMENSIONS
100
AcDbDimension
280
0
  2
*D19
  3
Standard
 10
80.0
 20
120.0
 30
0.0
 11
92.5
 21
120.0
 31
0.0
 70
32
 71
5
  1
<>
100
AcDbAlignedDimension
 13
80.0
 23
126.0
 33
0.0
 14
105.0
 24
126.0
 34
0.0
 50
0.0
100
AcDbRotatedDimension
1001
ACAD
1000
DSTYLE
1002
{
1070
140
1040
2.0
1002
}
  0
DIMENSION
  5
1B5
330
17
100
AcDbEntity
  8
DIMENSIONS
100
AcDbDimension
280
0
  2
*D20
  3
Standard
 10
111.0
 20
126.0
 30
0.0
 11
111.0
 21
132.0
 31
0.0
 70
32
 71
5
  1
<>
100
AcDbAlignedDimension
 13
105.0
 23
126.0
 33
0.0
 14
105.0
 24
138.0
 34
0.0
 50
90.0
100
AcDbRotatedDimension
1001
ACAD
1000
DSTYLE
1002
{
1070
140
1040
2.0
1002
}
  0
LWPOLYLINE
  5
1C5
330
17
100
AcDbEntity
  8
PIPE_RACK
100
AcDbPolyline
 90
6
 70
0
 10
59.0
 20
131.5
 10
59.0
 20
121.0
 10
153.0
 20
121.0
 10
153.0
 20
134.0
 10
239.0
 20
134.0
 10
352.0
 20
134.0
  0
LWPOLYLINE
  5
1C6
330
17
100
AcDbEntity
  8
PIPE_RACK
100
AcDbPolyline
 90
6
 70
0
 10
53.0
 20
131.5
 10
53.0
 20
115.0
 10
159.0
 20
115.0
 10
159.0
 20
128.0
 10
239.0
 20
128.0
 10
352.0
 20
128.0
  0
LWPOLYLINE
  5
1C7
330
17
100
AcDbEntity
  8
PIPE_RACK
100
AcDbPolyline
 90
3
 70
0
 10
124.0
 20
93.0
 10
124.0
 20
115.0
 10
113.0
 20
115.0
  0
LWPOLYLINE
  5
1C8
330
17
100
AcDbEntity
  8
PIPE_RACK
100
AcDbPolyline
 90
3
 70
0
 10
130.0
 20
93.0
 10
130.0
 20
121.0
 10
113.0
 20
121.0
  0
LWPOLYLINE
  5
1C9
330
17
100
AcDbEntity
  8
PIPE_RACK
100
AcDbPolyline
 90
2
 70
0
 10
59.0
 20
249.0
 10
59.0
 20
131.0
  0
LWPOLYLINE
  5
1CA
330
17
100
AcDbEntity
  8
PIPE_RACK
100
AcDbPolyline
 90
2
 70
0
 10
53.0
 20
249.0
 10
53.0
 20
131.0
  0
TEXT
  5
1CB
330
17
100
AcDbEntity
  8
LABELS
100
AcDbText
 10
-2.619102797206946
 20
-14.413409446229958
 30
0.0
 40
3.0
  1
Penalty Score: 78,531 pts  |  20/35 rules passing
100
AcDbText
  0
ENDSEC
  0
SECTION
  2
OBJECTS
  0
DICTIONARY
  5
A
330
0
100
AcDbDictionary
281
1
  3
ACAD_COLOR
350
B
  3
ACAD_GROUP
350
C
  3
ACAD_LAYOUT
350
D
  3
ACAD_MATERIAL
350
E
  3
ACAD_MLEADERSTYLE
350
F
  3
ACAD_MLINESTYLE
350
10
  3
ACAD_PLOTSETTINGS
350
11
  3
ACAD_PLOTSTYLENAME
350
12
  3
ACAD_SCALELIST
350
14
  3
ACAD_TABLESTYLE
350
15
  3
ACAD_VISUALSTYLE
350
16
  3
EZDXF_META
350
2D
  0
DICTIONARY
  5
B
330
A
100
AcDbDictionary
281
1
  0
DICTIONARY
  5
C
330
A
100
AcDbDictionary
281
1
  0
DICTIONARY
  5
D
330
A
100
AcDbDictionary
281
1
  3
Model
350
1A
  3
Layout1
350
1E
  0
DICTIONARY
  5
E
330
A
100
AcDbDictionary
281
1
  3
ByBlock
350
1F
  3
ByLayer
350
20
  3
Global
350
21
  0
DICTIONARY
  5
F
330
A
100
AcDbDictionary
281
1
  3
Standard
350
2C
  0
DICTIONARY
  5
10
330
A
100
AcDbDictionary
281
1
  3
Standard
350
22
  0
DICTIONARY
  5
11
330
A
100
AcDbDictionary
281
1
  0
ACDBDICTIONARYWDFLT
  5
12
330
A
100
AcDbDictionary
281
1
  3
Normal
350
13
100
AcDbDictionaryWithDefault
340
13
  0
ACDBPLACEHOLDER
  5
13
330
12
  0
DICTIONARY
  5
14
330
A
100
AcDbDictionary
281
1
  0
DICTIONARY
  5
15
330
A
100
AcDbDictionary
281
1
  0
DICTIONARY
  5
16
330
A
100
AcDbDictionary
281
1
  0
LAYOUT
  5
1A
330
D
100
AcDbPlotSettings
  1

  4
A3
  6

 40
7.5
 41
20.0
 42
7.5
 43
20.0
 44
420.0
 45
297.0
 46
0.0
 47
0.0
 48
0.0
 49
0.0
140
0.0
141
0.0
142
1.0
143
1.0
 70
1024
 72
1
 73
0
 74
5
  7

 75
16
 76
0
 77
2
 78
300
147
1.0
148
0.0
149
0.0
100
AcDbLayout
  1
Model
 70
1
 71
0
 10
0.0
 20
0.0
 11
420.0
 21
297.0
 12
0.0
 22
0.0
 32
0.0
 14
1e+20
 24
1e+20
 34
1e+20
 15
-1e+20
 25
-1e+20
 35
-1e+20
146
0.0
 13
0.0
 23
0.0
 33
0.0
 16
1.0
 26
0.0
 36
0.0
 17
0.0
 27
1.0
 37
0.0
 76
1
330
17
  0
LAYOUT
  5
1E
330
D
100
AcDbPlotSettings
  1

  4
A3
  6

 40
7.5
 41
20.0
 42
7.5
 43
20.0
 44
420.0
 45
297.0
 46
0.0
 47
0.0
 48
0.0
 49
0.0
140
0.0
141
0.0
142
1.0
143
1.0
 70
0
 72
1
 73
0
 74
5
  7

 75
16
 76
0
 77
2
 78
300
147
1.0
148
0.0
149
0.0
100
AcDbLayout
  1
Layout1
 70
1
 71
1
 10
0.0
 20
0.0
 11
420.0
 21
297.0
 12
0.0
 22
0.0
 32
0.0
 14
1e+20
 24
1e+20
 34
1e+20
 15
-1e+20
 25
-1e+20
 35
-1e+20
146
0.0
 13
0.0
 23
0.0
 33
0.0
 16
1.0
 26
0.0
 36
0.0
 17
0.0
 27
1.0
 37
0.0
 76
1
330
1B
  0
MATERIAL
  5
1F
102
{ACAD_REACTORS
330
E
102
}
330
E
100
AcDbMaterial
  1
ByBlock
  2

 70
0
 40
1.0
 71
1
 41
1.0
 91
-1023410177
 42
1.0
 72
1
  3

 73
1
 74
1
 75
1
 44
0.5
 73
0
 45
1.0
 46
1.0
 77
1
  4

 78
1
 79
1
170
1
 48
1.0
171
1
  6

172
1
173
1
174
1
140
1.0
141
1.0
175
1
  7

176
1
177
1
178
1
143
1.0
179
1
  8

270
1
271
1
272
1
145
1.0
146
1.0
273
1
  9

274
1
275
1
276
1
 42
1.0
 72
1
  3

 73
1
 74
1
 75
1
 94
63
  0
MATERIAL
  5
20
102
{ACAD_REACTORS
330
E
102
}
330
E
100
AcDbMaterial
  1
ByLayer
  2

 70
0
 40
1.0
 71
1
 41
1.0
 91
-1023410177
 42
1.0
 72
1
  3

 73
1
 74
1
 75
1
 44
0.5
 73
0
 45
1.0
 46
1.0
 77
1
  4

 78
1
 79
1
170
1
 48
1.0
171
1
  6

172
1
173
1
174
1
140
1.0
141
1.0
175
1
  7

176
1
177
1
178
1
143
1.0
179
1
  8

270
1
271
1
272
1
145
1.0
146
1.0
273
1
  9

274
1
275
1
276
1
 42
1.0
 72
1
  3

 73
1
 74
1
 75
1
 94
63
  0
MATERIAL
  5
21
102
{ACAD_REACTORS
330
E
102
}
330
E
100
AcDbMaterial
  1
Global
  2

 70
0
 40
1.0
 71
1
 41
1.0
 91
-1023410177
 42
1.0
 72
1
  3

 73
1
 74
1
 75
1
 44
0.5
 73
0
 45
1.0
 46
1.0
 77
1
  4

 78
1
 79
1
170
1
 48
1.0
171
1
  6

172
1
173
1
174
1
140
1.0
141
1.0
175
1
  7

176
1
177
1
178
1
143
1.0
179
1
  8

270
1
271
1
272
1
145
1.0
146
1.0
273
1
  9

274
1
275
1
276
1
 42
1.0
 72
1
  3

 73
1
 74
1
 75
1
 94
63
  0
MLINESTYLE
  5
22
102
{ACAD_REACTORS
330
10
102
}
330
10
100
AcDbMlineStyle
  2
Standard
 70
0
  3

 62
256
 51
90.0
 52
90.0
 71
2
 49
0.5
 62
256
  6
BYLAYER
 49
-0.5
 62
256
  6
BYLAYER
  0
MLEADERSTYLE
  5
2C
102
{ACAD_REACTORS
330
F
102
}
330
F
100
AcDbMLeaderStyle
179
2
170
2
171
1
172
0
 90
2
 40
0.0
 41
0.0
173
1
 91
-1056964608
 92
-2
290
1
 42
2.0
291
1
 43
8.0
  3
Standard
 44
4.0
300

342
29
174
1
175
1
176
0
178
1
 93
-1056964608
 45
4.0
292
0
297
0
 46
4.0
 94
-1056964608
 47
1.0
 49
1.0
140
1.0
294
1
141
0.0
177
0
142
1.0
295
0
296
0
143
3.75
271
0
272
9
273
9
  0
DICTIONARY
  5
2D
330
A
100
AcDbDictionary
280
1
281
1
  3
CREATED_BY_EZDXF
350
2E
  3
WRITTEN_BY_EZDXF
350
1CE
  0
DICTIONARYVAR
  5
2E
330
2D
100
DictionaryVariables
280
0
  1
1.4.4 @ 2026-07-22T23:55:03.760480+00:00
  0
DICTIONARYVAR
  5
1CE
330
2D
100
DictionaryVariables
280
0
  1
1.4.4 @ 2026-07-22T23:55:03.787965+00:00
  0
ENDSEC
  0
EOF
